<svg width="16" height="16" viewBox="0 0 16 16" fill="none" xmlns="http://www.w3.org/2000/svg">
<path fill-rule="evenodd" clip-rule="evenodd" d="M11.8541 4.14592C11.9007 4.19236 11.9376 4.24754 11.9629 4.30828C11.9881 4.36903 12.001 4.43415 12.001 4.49992C12.001 4.56568 11.9881 4.63081 11.9629 4.69155C11.9376 4.7523 11.9007 4.80747 11.8541 4.85392L4.85414 11.8539C4.76026 11.9478 4.63292 12.0005 4.50014 12.0005C4.36737 12.0005 4.24003 11.9478 4.14614 11.8539C4.05226 11.76 3.99951 11.6327 3.99951 11.4999C3.99951 11.3671 4.05226 11.2398 4.14614 11.1459L11.1461 4.14592C11.1926 4.09935 11.2478 4.06241 11.3085 4.0372C11.3693 4.012 11.4344 3.99902 11.5001 3.99902C11.5659 3.99902 11.631 4.012 11.6918 4.0372C11.7525 4.06241 11.8077 4.09935 11.8541 4.14592Z" fill="#C9DB30"/>
<path fill-rule="evenodd" clip-rule="evenodd" d="M4.14592 4.14592C4.09935 4.19236 4.06241 4.24754 4.0372 4.30828C4.012 4.36903 3.99902 4.43415 3.99902 4.49992C3.99902 4.56568 4.012 4.63081 4.0372 4.69155C4.06241 4.7523 4.09935 4.80747 4.14592 4.85392L11.1459 11.8539C11.2398 11.9478 11.3671 12.0005 11.4999 12.0005C11.6327 12.0005 11.76 11.9478 11.8539 11.8539C11.9478 11.76 12.0005 11.6327 12.0005 11.4999C12.0005 11.3671 11.9478 11.2398 11.8539 11.1459L4.85392 4.14592C4.80747 4.09935 4.7523 4.06241 4.69155 4.0372C4.63081 4.012 4.56568 3.99902 4.49992 3.99902C4.43415 3.99902 4.36903 4.012 4.30828 4.0372C4.24754 4.06241 4.19236 4.09935 4.14592 4.14592Z" fill="#C9DB30"/>
</svg>
