<svg width="20" height="21" viewBox="0 0 20 21" fill="none" xmlns="http://www.w3.org/2000/svg">
<path d="M19.2 0.5H0.8C0.3575 0.5 0 0.8575 0 1.3V19.7C0 20.1425 0.3575 20.5 0.8 20.5H19.2C19.6425 20.5 20 20.1425 20 19.7V1.3C20 0.8575 19.6425 0.5 19.2 0.5ZM16.89 6.3375H15.2925C14.04 6.3375 13.7975 6.9325 13.7975 7.8075V9.735H16.7875L16.3975 12.7525H13.7975V20.5H10.68V12.755H8.0725V9.735H10.68V7.51C10.68 4.9275 12.2575 3.52 14.5625 3.52C15.6675 3.52 16.615 3.6025 16.8925 3.64V6.3375H16.89Z" fill="white"/>
</svg>
