<svg width="20" height="20" viewBox="0 0 20 20" fill="none" xmlns="http://www.w3.org/2000/svg">
<circle cx="10" cy="10" r="10" transform="rotate(-90 10 10)" fill="#C9DB30"/>
<path fill-rule="evenodd" clip-rule="evenodd" d="M13.3031 8.61649C13.3489 8.66224 13.3853 8.71659 13.4101 8.77643C13.435 8.83626 13.4478 8.9004 13.4478 8.96519C13.4478 9.02997 13.435 9.09411 13.4101 9.15395C13.3853 9.21378 13.3489 9.26813 13.3031 9.31388L10.348 12.2689C10.3023 12.3148 10.2479 12.3512 10.1881 12.376C10.1283 12.4008 10.0641 12.4136 9.99935 12.4136C9.93457 12.4136 9.87042 12.4008 9.81059 12.376C9.75075 12.3512 9.6964 12.3148 9.65065 12.2689L6.69563 9.31388C6.60316 9.2214 6.5512 9.09597 6.5512 8.96519C6.5512 8.8344 6.60316 8.70897 6.69563 8.61649C6.78811 8.52401 6.91354 8.47206 7.04433 8.47206C7.17511 8.47206 7.30054 8.52401 7.39302 8.61649L9.99935 11.2238L12.6057 8.61649C12.6514 8.57063 12.7058 8.53424 12.7656 8.50941C12.8254 8.48458 12.8896 8.4718 12.9544 8.4718C13.0192 8.4718 13.0833 8.48458 13.1431 8.50941C13.203 8.53424 13.2573 8.57063 13.3031 8.61649Z" fill="white"/>
</svg>
