<svg width="20" height="20" viewBox="0 0 20 20" fill="none" xmlns="http://www.w3.org/2000/svg">
<circle cx="10" cy="10" r="10" transform="rotate(-90 10 10)" fill="#C9DB30"/>
<path fill-rule="evenodd" clip-rule="evenodd" d="M12.5909 6.26763C12.7452 6.09681 12.9535 6.00067 13.1708 6C13.3881 5.99933 13.5968 6.09419 13.752 6.26405C13.9071 6.43392 13.9962 6.66515 13.9999 6.90776C14.0036 7.15036 13.9216 7.38485 13.7718 7.56052L9.37029 13.7048C9.29464 13.7958 9.20334 13.8689 9.10184 13.9195C9.00035 13.9702 8.89074 13.9975 8.77958 13.9998C8.66842 14.0021 8.55799 13.9794 8.45488 13.9329C8.35178 13.8865 8.25812 13.8173 8.17951 13.7295L5.26319 10.4714C5.18195 10.3868 5.11678 10.2849 5.07159 10.1716C5.02639 10.0583 5.00209 9.93603 5.00013 9.81203C4.99817 9.68803 5.01859 9.56487 5.06018 9.44987C5.10178 9.33488 5.16368 9.23042 5.2422 9.14273C5.32073 9.05504 5.41426 8.9859 5.51723 8.93946C5.6202 8.89301 5.73049 8.8702 5.84152 8.87239C5.95255 8.87458 6.06205 8.90172 6.16349 8.95219C6.26493 9.00267 6.35622 9.07544 6.43192 9.16617L8.74072 11.7433L12.57 6.29472C12.5768 6.28518 12.5842 6.27613 12.592 6.26763H12.5909Z" fill="white"/>
</svg>
