<svg width="10" height="7" viewBox="0 0 10 7" fill="none" xmlns="http://www.w3.org/2000/svg">
<path fill-rule="evenodd" clip-rule="evenodd" d="M9.7902 0.925622C9.8567 0.991959 9.90947 1.07076 9.94547 1.15752C9.98147 1.24428 10 1.33729 10 1.43123C10 1.52516 9.98147 1.61817 9.94547 1.70493C9.90947 1.79169 9.8567 1.87049 9.7902 1.93683L5.50541 6.22161C5.43908 6.28812 5.36027 6.34088 5.27351 6.37688C5.18675 6.41288 5.09374 6.43141 4.99981 6.43141C4.90588 6.43141 4.81287 6.41288 4.72611 6.37688C4.63935 6.34088 4.56054 6.28812 4.4942 6.22161L0.209426 1.93683C0.075332 1.80274 -5.7043e-07 1.62087 -4.50905e-07 1.43123C-3.3138e-07 1.24159 0.0753324 1.05972 0.209427 0.925623C0.343522 0.791528 0.525393 0.716195 0.715032 0.716195C0.90467 0.716195 1.08654 0.791528 1.22064 0.925623L4.99981 4.70623L8.77899 0.925623C8.84533 0.859118 8.92413 0.806355 9.01089 0.770353C9.09765 0.734352 9.19066 0.71582 9.28459 0.71582C9.37853 0.71582 9.47154 0.734352 9.5583 0.770353C9.64506 0.806355 9.72386 0.859118 9.7902 0.925622Z" fill="#C9DB30"/>
</svg>
