<svg width="19" height="19" viewBox="0 0 19 19" fill="none" xmlns="http://www.w3.org/2000/svg">
<path d="M17.95 5.80496C17.9399 5.04758 17.7981 4.29773 17.531 3.58896C17.2993 2.99111 16.9455 2.44816 16.4922 1.99479C16.0388 1.54142 15.4958 1.18761 14.898 0.955957C14.1983 0.693314 13.4592 0.551298 12.712 0.535957C11.75 0.492957 11.445 0.480957 9.003 0.480957C6.561 0.480957 6.248 0.480957 5.293 0.535957C4.54616 0.551411 3.80735 0.693425 3.108 0.955957C2.51006 1.18745 1.96702 1.5412 1.51363 1.99459C1.06024 2.44798 0.706489 2.99102 0.475 3.58896C0.211831 4.28809 0.0701232 5.02707 0.056 5.77396C0.013 6.73696 0 7.04196 0 9.48396C0 11.926 -7.45058e-09 12.238 0.056 13.194C0.071 13.942 0.212 14.68 0.475 15.381C0.706878 15.9787 1.0609 16.5215 1.51444 16.9747C1.96798 17.4279 2.51106 17.7815 3.109 18.013C3.80643 18.2862 4.54537 18.4383 5.294 18.463C6.257 18.506 6.562 18.519 9.004 18.519C11.446 18.519 11.759 18.519 12.714 18.463C13.4612 18.4482 14.2004 18.3066 14.9 18.044C15.4977 17.812 16.0405 17.4581 16.4938 17.0048C16.9472 16.5515 17.3011 16.0086 17.533 15.411C17.796 14.711 17.937 13.973 17.952 13.224C17.995 12.262 18.008 11.957 18.008 9.51396C18.006 7.07196 18.006 6.76196 17.95 5.80496ZM8.997 14.102C6.443 14.102 4.374 12.033 4.374 9.47896C4.374 6.92496 6.443 4.85596 8.997 4.85596C10.2231 4.85596 11.399 5.34302 12.266 6.21C13.1329 7.07698 13.62 8.25286 13.62 9.47896C13.62 10.7051 13.1329 11.8809 12.266 12.7479C11.399 13.6149 10.2231 14.102 8.997 14.102ZM13.804 5.76296C13.207 5.76296 12.726 5.28096 12.726 4.68496C12.726 4.54346 12.7539 4.40334 12.808 4.27262C12.8622 4.14189 12.9415 4.0231 13.0416 3.92305C13.1416 3.82299 13.2604 3.74363 13.3912 3.68948C13.5219 3.63533 13.662 3.60746 13.8035 3.60746C13.945 3.60746 14.0851 3.63533 14.2158 3.68948C14.3466 3.74363 14.4654 3.82299 14.5654 3.92305C14.6655 4.0231 14.7448 4.14189 14.799 4.27262C14.8531 4.40334 14.881 4.54346 14.881 4.68496C14.881 5.28096 14.399 5.76296 13.804 5.76296Z" fill="white"/>
<path d="M9.01106 12.5031C10.6696 12.5031 12.0141 11.1586 12.0141 9.50007C12.0141 7.84156 10.6696 6.49707 9.01106 6.49707C7.35255 6.49707 6.00806 7.84156 6.00806 9.50007C6.00806 11.1586 7.35255 12.5031 9.01106 12.5031Z" fill="white"/>
</svg>
