<svg width="25" height="25" viewBox="0 0 25 25" fill="none" xmlns="http://www.w3.org/2000/svg">
<path d="M12.5 13.875C12.1955 13.8714 11.8973 13.9612 11.6454 14.1323C11.3936 14.3034 11.2001 14.5475 11.0912 14.8318C10.9823 15.1161 10.9631 15.427 11.0361 15.7226C11.1092 16.0181 11.2711 16.2842 11.5 16.485V17.875C11.5 18.1402 11.6054 18.3946 11.7929 18.5821C11.9804 18.7696 12.2348 18.875 12.5 18.875C12.7652 18.875 13.0196 18.7696 13.2071 18.5821C13.3946 18.3946 13.5 18.1402 13.5 17.875V16.485C13.7289 16.2842 13.8908 16.0181 13.9639 15.7226C14.0369 15.427 14.0177 15.1161 13.9088 14.8318C13.7999 14.5475 13.6064 14.3034 13.3546 14.1323C13.1027 13.9612 12.8045 13.8714 12.5 13.875ZM17.5 9.875V7.875C17.5 6.54892 16.9732 5.27715 16.0355 4.33947C15.0979 3.40178 13.8261 2.875 12.5 2.875C11.1739 2.875 9.90215 3.40178 8.96447 4.33947C8.02678 5.27715 7.5 6.54892 7.5 7.875V9.875C6.70435 9.875 5.94129 10.1911 5.37868 10.7537C4.81607 11.3163 4.5 12.0794 4.5 12.875V19.875C4.5 20.6706 4.81607 21.4337 5.37868 21.9963C5.94129 22.5589 6.70435 22.875 7.5 22.875H17.5C18.2956 22.875 19.0587 22.5589 19.6213 21.9963C20.1839 21.4337 20.5 20.6706 20.5 19.875V12.875C20.5 12.0794 20.1839 11.3163 19.6213 10.7537C19.0587 10.1911 18.2956 9.875 17.5 9.875ZM9.5 7.875C9.5 7.07935 9.81607 6.31629 10.3787 5.75368C10.9413 5.19107 11.7044 4.875 12.5 4.875C13.2956 4.875 14.0587 5.19107 14.6213 5.75368C15.1839 6.31629 15.5 7.07935 15.5 7.875V9.875H9.5V7.875ZM18.5 19.875C18.5 20.1402 18.3946 20.3946 18.2071 20.5821C18.0196 20.7696 17.7652 20.875 17.5 20.875H7.5C7.23478 20.875 6.98043 20.7696 6.79289 20.5821C6.60536 20.3946 6.5 20.1402 6.5 19.875V12.875C6.5 12.6098 6.60536 12.3554 6.79289 12.1679C6.98043 11.9804 7.23478 11.875 7.5 11.875H17.5C17.7652 11.875 18.0196 11.9804 18.2071 12.1679C18.3946 12.3554 18.5 12.6098 18.5 12.875V19.875Z" fill="#C9DB30"/>
</svg>
