<svg width="17" height="17" viewBox="0 0 17 17" fill="none" xmlns="http://www.w3.org/2000/svg">
<g clip-path="url(#clip0)">
<path d="M14.3091 14.0664C15.1395 13.0673 15.7169 11.883 15.9928 10.6136C16.2686 9.34422 16.2346 8.02706 15.8937 6.77356C15.5528 5.52006 14.915 4.36711 14.0343 3.41223C13.1536 2.45736 12.0558 1.72865 10.8339 1.28775C9.61199 0.846858 8.30186 0.706747 7.01434 0.879273C5.72682 1.0518 4.49979 1.53189 3.43706 2.27892C2.37432 3.02596 1.50714 4.01796 0.908879 5.17102C0.310615 6.32408 -0.00113471 7.60427 3.10341e-06 8.9033C0.000439722 10.7917 0.665907 12.6196 1.87963 14.0664L1.86807 14.0762C1.90854 14.1248 1.9548 14.1664 1.99642 14.2144C2.04846 14.2739 2.10454 14.33 2.15831 14.3878C2.3202 14.5636 2.48671 14.7324 2.66132 14.8908C2.71451 14.9394 2.76944 14.9845 2.82321 15.0307C3.00822 15.1903 3.19844 15.3418 3.39559 15.4829C3.42103 15.5002 3.44416 15.5228 3.4696 15.5407V15.5338C4.82373 16.4867 6.43914 16.9981 8.09496 16.9981C9.75078 16.9981 11.3662 16.4867 12.7203 15.5338V15.5407C12.7458 15.5228 12.7683 15.5002 12.7943 15.4829C12.9909 15.3412 13.1817 15.1903 13.3667 15.0307C13.4205 14.9845 13.4754 14.9388 13.5286 14.8908C13.7032 14.7318 13.8697 14.5636 14.0316 14.3878C14.0854 14.33 14.1409 14.2739 14.1935 14.2144C14.2345 14.1664 14.2814 14.1248 14.3218 14.0756L14.3091 14.0664ZM8.09438 4.27794C8.60896 4.27794 9.11199 4.43053 9.53984 4.71642C9.9677 5.0023 10.3012 5.40864 10.4981 5.88405C10.695 6.35946 10.7465 6.88259 10.6462 7.38728C10.5458 7.89198 10.298 8.35557 9.93411 8.71943C9.57024 9.08329 9.10665 9.33109 8.60196 9.43148C8.09727 9.53187 7.57414 9.48034 7.09873 9.28342C6.62332 9.0865 6.21698 8.75303 5.93109 8.32517C5.64521 7.89731 5.49262 7.39429 5.49262 6.8797C5.49262 6.18967 5.76673 5.52791 6.25466 5.03998C6.74258 4.55205 7.40435 4.27794 8.09438 4.27794ZM3.47307 14.0664C3.4831 13.3072 3.79161 12.5825 4.33186 12.0491C4.87211 11.5157 5.60065 11.2164 6.35987 11.216H9.82889C10.5881 11.2164 11.3167 11.5157 11.8569 12.0491C12.3972 12.5825 12.7057 13.3072 12.7157 14.0664C11.4477 15.209 9.80129 15.8414 8.09438 15.8414C6.38747 15.8414 4.74109 15.209 3.47307 14.0664Z" fill="#C9DB30"/>
</g>
<defs>
<clipPath id="clip0">
<rect width="16.1905" height="17" fill="white"/>
</clipPath>
</defs>
</svg>
