<svg width="29" height="29" viewBox="0 0 29 29" fill="none" xmlns="http://www.w3.org/2000/svg">
<circle cx="14.5" cy="14.5" r="14.5" transform="rotate(-180 14.5 14.5)" fill="#C9DB30"/>
<path fill-rule="evenodd" clip-rule="evenodd" d="M12.494 9.71066C12.5603 9.64415 12.6391 9.59139 12.7259 9.55539C12.8126 9.51939 12.9057 9.50085 12.9996 9.50085C13.0935 9.50085 13.1865 9.51939 13.2733 9.55539C13.36 9.59139 13.4389 9.64415 13.5052 9.71066L17.79 13.9954C17.8565 14.0618 17.9092 14.1406 17.9452 14.2273C17.9812 14.3141 17.9998 14.4071 17.9998 14.501C17.9998 14.595 17.9812 14.688 17.9452 14.7747C17.9092 14.8615 17.8565 14.9403 17.79 15.0066L13.5052 19.2914C13.3711 19.4255 13.1892 19.5009 12.9996 19.5009C12.8099 19.5009 12.6281 19.4255 12.494 19.2914C12.3599 19.1573 12.2846 18.9755 12.2846 18.7858C12.2846 18.5962 12.3599 18.4143 12.494 18.2802L16.2746 14.501L12.494 10.7219C12.4275 10.6555 12.3747 10.5767 12.3387 10.49C12.3027 10.4032 12.2842 10.3102 12.2842 10.2163C12.2842 10.1223 12.3027 10.0293 12.3387 9.94256C12.3747 9.8558 12.4275 9.77699 12.494 9.71066Z" fill="white"/>
</svg>
