<svg width="29" height="29" viewBox="0 0 29 29" fill="none" xmlns="http://www.w3.org/2000/svg">
<circle cx="14.5" cy="14.5" r="14.5" fill="#C9DB30"/>
<path fill-rule="evenodd" clip-rule="evenodd" d="M16.5058 19.2893C16.4394 19.3558 16.3606 19.4086 16.2739 19.4446C16.1871 19.4806 16.0941 19.4991 16.0002 19.4991C15.9062 19.4991 15.8132 19.4806 15.7265 19.4446C15.6397 19.4086 15.5609 19.3558 15.4946 19.2893L11.2098 15.0046C11.1433 14.9382 11.0905 14.8594 11.0545 14.7727C11.0185 14.6859 11 14.5929 11 14.499C11 14.405 11.0185 14.312 11.0545 14.2253C11.0905 14.1385 11.1433 14.0597 11.2098 13.9934L15.4946 9.70857C15.6287 9.57448 15.8105 9.49915 16.0002 9.49915C16.1898 9.49915 16.3717 9.57448 16.5058 9.70857C16.6399 9.84267 16.7152 10.0245 16.7152 10.2142C16.7152 10.4038 16.6399 10.5857 16.5058 10.7198L12.7252 14.499L16.5058 18.2781C16.5723 18.3445 16.625 18.4233 16.661 18.51C16.697 18.5968 16.7156 18.6898 16.7156 18.7837C16.7156 18.8777 16.697 18.9707 16.661 19.0574C16.625 19.1442 16.5723 19.223 16.5058 19.2893Z" fill="white"/>
</svg>
