<svg width="50" height="50" viewBox="0 0 50 50" fill="none" xmlns="http://www.w3.org/2000/svg">
<path d="M31.1038 21.6309H25.342V15.0879C25.342 14.873 25.1663 14.6973 24.9514 14.6973H22.0217C21.8069 14.6973 21.6311 14.873 21.6311 15.0879V21.6309H15.8694C15.6545 21.6309 15.4788 21.8066 15.4788 22.0215V24.9512C15.4788 25.166 15.6545 25.3418 15.8694 25.3418H21.6311V31.8848C21.6311 32.0996 21.8069 32.2754 22.0217 32.2754H24.9514C25.1663 32.2754 25.342 32.0996 25.342 31.8848V25.3418H31.1038C31.3186 25.3418 31.4944 25.166 31.4944 24.9512V22.0215C31.4944 21.8066 31.3186 21.6309 31.1038 21.6309ZM44.9709 42.334L37.842 35.2051C43.804 27.9346 43.3889 17.1631 36.5725 10.3516C29.3459 3.12012 17.6077 3.12012 10.3518 10.3516C3.12036 17.6074 3.12036 29.3457 10.3518 36.5723C17.1633 43.3887 27.9348 43.8037 35.2053 37.8418L42.3342 44.9707C42.4905 45.1074 42.7395 45.1074 42.8713 44.9707L44.9709 42.8711C45.1077 42.7393 45.1077 42.4902 44.9709 42.334ZM33.9846 33.9844C28.1838 39.7803 18.7893 39.7803 12.9885 33.9844C7.19263 28.1836 7.19263 18.7891 12.9885 12.9883C18.7893 7.19238 28.1838 7.19238 33.9846 12.9883C39.7805 18.7891 39.7805 28.1836 33.9846 33.9844Z" fill="#C9DB30"/>
</svg>
