<svg width="936" height="741" viewBox="0 0 936 741" fill="none" xmlns="http://www.w3.org/2000/svg">
<path d="M0 1C133.974 341.593 279.023 438.905 387.418 464.274C481.373 486.267 552.547 455.319 668.758 499.877C802.35 551.096 886.788 660.418 936 741C936 494.333 936 247.667 936 1C624.002 1 312.003 1 0 1Z" fill="url(#paint0_linear)" fill-opacity="0.05"/>
<g opacity="0.1" clip-path="url(#clip0)">
<path d="M455.24 635.67L335.01 515.5C333.58 514.07 333.58 511.76 335.01 510.33C336.44 508.9 338.75 508.9 340.18 510.33L460.41 630.49C461.84 631.92 461.84 634.23 460.41 635.66C458.98 637.09 456.67 637.09 455.24 635.67Z" fill="url(#paint1_linear)"/>
<path d="M493.87 648.41L327.07 481.71C325.64 480.28 325.64 477.97 327.07 476.54C328.5 475.11 330.81 475.11 332.24 476.54L499.04 643.24C500.47 644.67 500.47 646.98 499.04 648.41C497.61 649.83 495.3 649.83 493.87 648.41Z" fill="url(#paint2_linear)"/>
<path d="M420.8 627.12L348.37 554.73C346.94 553.3 346.94 550.99 348.37 549.56C349.79 548.13 352.11 548.13 353.54 549.56L425.97 621.95C427.4 623.38 427.4 625.69 425.97 627.12C424.55 628.54 422.23 628.54 420.8 627.12Z" fill="url(#paint3_linear)"/>
<path d="M525.6 654.25L327.51 456.27C326.08 454.84 326.08 452.53 327.51 451.1C328.94 449.67 331.25 449.67 332.68 451.1L530.77 649.08C532.2 650.51 532.2 652.82 530.77 654.25C529.34 655.68 527.03 655.68 525.6 654.25Z" fill="url(#paint4_linear)"/>
<path d="M553.64 656.43L331.64 434.56C330.21 433.13 330.21 430.82 331.64 429.39C333.06 427.96 335.38 427.96 336.81 429.39L558.81 651.26C560.24 652.69 560.24 655 558.81 656.43C557.39 657.86 555.07 657.86 553.64 656.43Z" fill="url(#paint5_linear)"/>
<path d="M579.21 656.14L337.7 414.76C336.27 413.33 336.27 411.02 337.7 409.59C339.13 408.16 341.44 408.16 342.87 409.59L584.38 650.97C585.81 652.4 585.81 654.71 584.38 656.14C582.96 657.56 580.64 657.56 579.21 656.14Z" fill="url(#paint6_linear)"/>
<path d="M602.99 654.05L345.62 396.82C344.19 395.39 344.19 393.08 345.62 391.65C347.05 390.22 349.36 390.22 350.79 391.65L608.16 648.88C609.59 650.31 609.59 652.62 608.16 654.05C606.73 655.48 604.42 655.48 602.99 654.05Z" fill="url(#paint7_linear)"/>
<path d="M625.42 650.62L355.32 380.67C353.89 379.24 353.89 376.93 355.32 375.5C356.75 374.07 359.06 374.07 360.49 375.5L630.58 645.45C632.01 646.88 632.01 649.19 630.58 650.62C629.16 652.04 626.84 652.04 625.42 650.62Z" fill="url(#paint8_linear)"/>
<path d="M646.85 646.19L366.58 366.08C365.15 364.65 365.15 362.34 366.58 360.91C368.01 359.48 370.32 359.48 371.75 360.91L652.02 641.02C653.45 642.45 653.45 644.76 652.02 646.19C650.6 647.62 648.28 647.62 646.85 646.19Z" fill="url(#paint9_linear)"/>
<path d="M667.43 640.91L379.26 352.9C377.83 351.47 377.83 349.16 379.26 347.73C380.69 346.3 383 346.3 384.43 347.73L672.6 635.74C674.03 637.17 674.03 639.48 672.6 640.91C671.17 642.34 668.86 642.34 667.43 640.91Z" fill="url(#paint10_linear)"/>
<path d="M687.22 634.84L393.08 340.87C391.65 339.44 391.65 337.13 393.08 335.7C394.51 334.27 396.82 334.27 398.25 335.7L692.39 629.67C693.82 631.1 693.82 633.41 692.39 634.84C690.96 636.27 688.65 636.27 687.22 634.84Z" fill="url(#paint11_linear)"/>
<path d="M706.26 628.02L407.88 329.81C406.45 328.38 406.45 326.07 407.88 324.64C409.31 323.21 411.62 323.21 413.05 324.64L711.43 622.85C712.86 624.28 712.86 626.59 711.43 628.02C710 629.45 707.69 629.45 706.26 628.02Z" fill="url(#paint12_linear)"/>
<path d="M724.62 620.49L423.4 319.45C421.97 318.02 421.97 315.71 423.4 314.28C424.83 312.85 427.14 312.85 428.57 314.28L729.79 615.32C731.22 616.75 731.22 619.06 729.79 620.49C728.37 621.92 726.05 621.92 724.62 620.49Z" fill="url(#paint13_linear)"/>
<path d="M742.33 612.34L439.47 309.65C438.04 308.22 438.04 305.91 439.47 304.48C440.9 303.05 443.21 303.05 444.64 304.48L747.5 607.17C748.93 608.6 748.93 610.91 747.5 612.34C746.07 613.77 743.76 613.77 742.33 612.34Z" fill="url(#paint14_linear)"/>
<path d="M759.38 603.53L455.9 300.22C454.47 298.79 454.47 296.48 455.9 295.05C457.33 293.62 459.64 293.62 461.07 295.05L764.54 598.36C765.97 599.79 765.97 602.1 764.54 603.53C763.12 604.95 760.8 604.96 759.38 603.53Z" fill="url(#paint15_linear)"/>
<path d="M775.84 594.13L472.54 291C471.11 289.57 471.11 287.26 472.54 285.83C473.96 284.4 476.28 284.4 477.71 285.83L781.01 588.96C782.44 590.39 782.44 592.7 781.01 594.13C779.58 595.56 777.26 595.56 775.84 594.13Z" fill="url(#paint16_linear)"/>
<path d="M791.7 584.13L489.26 281.86C487.83 280.43 487.83 278.12 489.26 276.69C490.69 275.26 493 275.26 494.43 276.69L796.86 578.96C798.29 580.39 798.29 582.7 796.86 584.13C795.44 585.56 793.12 585.56 791.7 584.13Z" fill="url(#paint17_linear)"/>
<path d="M807 573.58L505.97 272.72C504.54 271.29 504.54 268.98 505.97 267.55C507.4 266.12 509.71 266.12 511.14 267.55L812.17 568.41C813.6 569.84 813.6 572.15 812.17 573.58C810.75 575.01 808.43 575.01 807 573.58Z" fill="url(#paint18_linear)"/>
<path d="M821.75 562.47L522.62 263.51C521.19 262.08 521.19 259.77 522.62 258.34C524.05 256.91 526.36 256.91 527.79 258.34L826.91 557.3C828.34 558.73 828.34 561.04 826.91 562.47C825.49 563.9 823.18 563.9 821.75 562.47Z" fill="url(#paint19_linear)"/>
<path d="M835.96 550.83L539.1 254.14C537.67 252.71 537.67 250.4 539.1 248.97C540.53 247.54 542.84 247.54 544.27 248.97L841.13 545.66C842.56 547.09 842.56 549.4 841.13 550.83C839.7 552.25 837.39 552.25 835.96 550.83Z" fill="url(#paint20_linear)"/>
<path d="M849.62 538.63L555.28 244.46C553.85 243.03 553.85 240.72 555.28 239.29C556.71 237.86 559.02 237.86 560.45 239.29L854.79 533.46C856.22 534.89 856.22 537.2 854.79 538.63C853.37 540.06 851.05 540.06 849.62 538.63Z" fill="url(#paint21_linear)"/>
<path d="M862.77 525.91L571.08 234.39C569.65 232.96 569.65 230.65 571.08 229.22C572.51 227.79 574.82 227.79 576.25 229.22L867.94 520.74C869.37 522.17 869.37 524.48 867.94 525.91C866.52 527.34 864.2 527.34 862.77 525.91Z" fill="url(#paint22_linear)"/>
<path d="M875.36 512.62L586.44 223.86C585.01 222.43 585.01 220.12 586.44 218.69C587.87 217.26 590.18 217.26 591.61 218.69L880.52 507.45C881.95 508.88 881.95 511.19 880.52 512.62C879.1 514.05 876.78 514.05 875.36 512.62Z" fill="url(#paint23_linear)"/>
<path d="M887.41 498.82L601.19 212.77C599.76 211.34 599.76 209.03 601.19 207.6C602.62 206.17 604.93 206.17 606.36 207.6L892.58 493.65C894.01 495.08 894.01 497.39 892.58 498.82C891.15 500.25 888.84 500.25 887.41 498.82Z" fill="url(#paint24_linear)"/>
<path d="M898.9 484.45L615.35 201.07C613.92 199.64 613.92 197.33 615.35 195.9C616.78 194.47 619.09 194.47 620.52 195.9L904.06 479.28C905.49 480.71 905.49 483.02 904.06 484.45C902.64 485.88 900.32 485.88 898.9 484.45Z" fill="url(#paint25_linear)"/>
<path d="M909.78 469.48L628.89 188.75C627.46 187.32 627.46 185.01 628.89 183.58C630.32 182.15 632.63 182.15 634.06 183.58L914.95 464.31C916.38 465.74 916.38 468.05 914.95 469.48C913.52 470.91 911.21 470.91 909.78 469.48Z" fill="url(#paint26_linear)"/>
<path d="M920.06 453.91L641.74 175.75C640.31 174.32 640.31 172.01 641.74 170.58C643.17 169.15 645.48 169.15 646.91 170.58L925.23 448.73C926.66 450.16 926.66 452.47 925.23 453.9C923.8 455.33 921.49 455.33 920.06 453.91Z" fill="url(#paint27_linear)"/>
<path d="M929.65 437.64L653.97 162.12C652.54 160.69 652.54 158.38 653.97 156.95C655.4 155.52 657.71 155.52 659.14 156.95L934.81 432.46C936.24 433.89 936.24 436.2 934.81 437.63C933.39 439.06 931.07 439.06 929.65 437.64Z" fill="url(#paint28_linear)"/>
<path d="M938.52 420.65L665.56 147.85C664.13 146.42 664.13 144.11 665.56 142.68C666.99 141.25 669.3 141.25 670.73 142.68L943.68 415.48C945.11 416.91 945.11 419.22 943.68 420.65C942.26 422.08 939.94 422.08 938.52 420.65Z" fill="url(#paint29_linear)"/>
<path d="M946.53 402.81L676.63 133.06C675.2 131.63 675.2 129.32 676.63 127.89C678.06 126.46 680.37 126.46 681.8 127.89L951.69 397.64C953.12 399.07 953.12 401.38 951.69 402.81C950.27 404.24 947.96 404.24 946.53 402.81Z" fill="url(#paint30_linear)"/>
<path d="M953.57 384L687.18 117.76C685.75 116.33 685.75 114.02 687.18 112.59C688.61 111.16 690.92 111.16 692.35 112.59L958.74 378.83C960.17 380.26 960.17 382.57 958.74 384C957.31 385.43 955 385.43 953.57 384Z" fill="url(#paint31_linear)"/>
<path d="M959.88 364.42L697.33 102.02C695.9 100.59 695.9 98.2799 697.33 96.8499C698.76 95.4199 701.07 95.4199 702.5 96.8499L965.05 359.25C966.48 360.68 966.48 362.99 965.05 364.42C963.62 365.85 961.31 365.85 959.88 364.42Z" fill="url(#paint32_linear)"/>
<path d="M965.48 344.17L707.08 85.9199C705.65 84.4899 705.65 82.1799 707.08 80.7499C708.51 79.3199 710.82 79.3199 712.25 80.7499L970.64 339C972.07 340.43 972.07 342.74 970.64 344.17C969.22 345.6 966.9 345.6 965.48 344.17Z" fill="url(#paint33_linear)"/>
<path d="M970.32 323.17L716.51 69.5099C715.08 68.0799 715.08 65.7699 716.51 64.3399C717.94 62.9099 720.25 62.9099 721.68 64.3399L975.49 317.99C976.92 319.42 976.92 321.73 975.49 323.16C974.06 324.59 971.75 324.59 970.32 323.17Z" fill="url(#paint34_linear)"/>
<path d="M974.31 301.3L725.66 52.7998C724.23 51.3698 724.23 49.0598 725.66 47.6298C727.09 46.1998 729.4 46.1998 730.83 47.6298L979.48 296.13C980.91 297.56 980.91 299.87 979.48 301.3C978.05 302.73 975.74 302.73 974.31 301.3Z" fill="url(#paint35_linear)"/>
<path d="M977.33 278.47L734.61 35.89C733.18 34.46 733.18 32.1499 734.61 30.7199C736.04 29.2899 738.35 29.2899 739.78 30.7199L982.5 273.3C983.93 274.73 983.93 277.04 982.5 278.47C981.07 279.9 978.76 279.9 977.33 278.47Z" fill="url(#paint36_linear)"/>
<path d="M979.21 254.51L744.39 19.82C742.96 18.39 742.96 16.08 744.39 14.65C745.82 13.22 748.13 13.22 749.56 14.65L984.38 249.33C985.81 250.76 985.81 253.07 984.38 254.5C982.96 255.93 980.64 255.93 979.21 254.51Z" fill="url(#paint37_linear)"/>
<path d="M979.76 229.21L756.43 6.00004C755 4.57005 755 2.26005 756.43 0.830058C757.86 -0.599934 760.17 -0.599934 761.6 0.830059L984.93 224.04C986.36 225.47 986.36 227.78 984.93 229.21C983.5 230.63 981.19 230.64 979.76 229.21Z" fill="url(#paint38_linear)"/>
<path d="M978.7 202.3L770.75 -5.53022C769.32 -6.96021 769.32 -9.27021 770.75 -10.7002C772.18 -12.1302 774.49 -12.1302 775.92 -10.7002L983.87 197.13C985.3 198.56 985.3 200.87 983.87 202.3C982.44 203.73 980.13 203.73 978.7 202.3Z" fill="url(#paint39_linear)"/>
<path d="M975.65 173.4L787.47 -14.6701C786.04 -16.1001 786.04 -18.4101 787.47 -19.8401C788.9 -21.2701 791.21 -21.2701 792.64 -19.8401L980.81 168.23C982.24 169.66 982.24 171.97 980.81 173.4C979.39 174.83 977.07 174.83 975.65 173.4Z" fill="url(#paint40_linear)"/>
<path d="M970.01 141.9L806.96 -21.0501C805.53 -22.4801 805.53 -24.7901 806.96 -26.2201C808.39 -27.6501 810.7 -27.6501 812.13 -26.2201L975.18 136.73C976.61 138.16 976.61 140.47 975.18 141.9C973.75 143.33 971.44 143.33 970.01 141.9Z" fill="url(#paint41_linear)"/>
<path d="M960.85 106.88L830.14 -23.7602C828.71 -25.1902 828.71 -27.5002 830.14 -28.9302C831.57 -30.3601 833.88 -30.3601 835.31 -28.9302L966.02 101.7C967.45 103.13 967.45 105.44 966.02 106.87C964.59 108.3 962.28 108.3 960.85 106.88Z" fill="url(#paint42_linear)"/>
<path d="M931.7 26.0498L898.07 -7.56017C896.64 -8.99017 896.64 -11.3002 898.07 -12.7302C899.5 -14.1602 901.81 -14.1602 903.24 -12.7302L936.87 20.8798C938.3 22.3098 938.3 24.6198 936.87 26.0498C935.45 27.4798 933.13 27.4798 931.7 26.0498Z" fill="url(#paint43_linear)"/>
<path d="M946.47 66.6599L859.47 -20.29C858.04 -21.72 858.04 -24.0301 859.47 -25.4601C860.9 -26.8901 863.21 -26.8901 864.64 -25.4601L951.64 61.4799C953.07 62.9099 953.07 65.22 951.64 66.65C950.21 68.09 947.9 68.0899 946.47 66.6599Z" fill="url(#paint44_linear)"/>
</g>
<g clip-path="url(#clip1)">
<path d="M916.05 618.889L894.593 595.836C893.219 594.357 890.98 594.357 889.605 595.836L868.149 618.902C866.774 620.381 864.536 620.381 863.161 618.902L841.718 595.836C840.343 594.357 838.105 594.357 836.73 595.836L815.274 618.889C813.899 620.368 811.661 620.368 810.286 618.889L788.843 595.836C787.468 594.357 785.23 594.357 783.855 595.836L762.399 618.889C761.024 620.368 758.786 620.368 757.411 618.889L735.968 595.836C734.593 594.357 732.355 594.357 730.98 595.836L712.024 616.218C710.649 617.698 708.411 617.698 707.036 616.218C705.662 614.739 705.662 612.344 707.036 610.864L730.98 585.114C732.355 583.635 734.593 583.635 735.968 585.114L757.424 608.181C758.799 609.66 761.037 609.66 762.412 608.181L783.855 585.114C785.23 583.635 787.468 583.635 788.843 585.114L810.299 608.181C811.674 609.66 813.912 609.66 815.287 608.181L836.73 585.114C838.105 583.635 840.343 583.635 841.718 585.114L863.174 608.181C864.549 609.66 866.788 609.66 868.162 608.181L889.619 585.114C890.993 583.635 893.219 583.635 894.606 585.114L916.063 608.181C917.437 609.66 919.676 609.66 921.05 608.181L939.993 587.798C941.368 586.319 943.606 586.319 944.981 587.798C946.356 589.277 946.356 591.673 944.981 593.152L921.037 618.902C919.65 620.368 917.424 620.368 916.05 618.889Z" fill="#C9DB30"/>
</g>
<defs>
<linearGradient id="paint0_linear" x1="468" y1="1" x2="468" y2="741" gradientUnits="userSpaceOnUse">
<stop stop-color="#0D1727"/>
<stop offset="0.546875" stop-color="#0D1727" stop-opacity="0.42"/>
<stop offset="1" stop-color="#0D1727" stop-opacity="0"/>
</linearGradient>
<linearGradient id="paint1_linear" x1="397.71" y1="636.734" x2="397.71" y2="509.257" gradientUnits="userSpaceOnUse">
<stop stop-color="#0D1727"/>
<stop offset="1" stop-color="#0D1727" stop-opacity="0"/>
</linearGradient>
<linearGradient id="paint2_linear" x1="413.055" y1="649.475" x2="413.055" y2="475.467" gradientUnits="userSpaceOnUse">
<stop stop-color="#0D1727"/>
<stop offset="1" stop-color="#0D1727" stop-opacity="0"/>
</linearGradient>
<linearGradient id="paint3_linear" x1="387.17" y1="628.185" x2="387.17" y2="548.487" gradientUnits="userSpaceOnUse">
<stop stop-color="#0D1727"/>
<stop offset="1" stop-color="#0D1727" stop-opacity="0"/>
</linearGradient>
<linearGradient id="paint4_linear" x1="429.14" y1="655.322" x2="429.14" y2="450.027" gradientUnits="userSpaceOnUse">
<stop stop-color="#0D1727"/>
<stop offset="1" stop-color="#0D1727" stop-opacity="0"/>
</linearGradient>
<linearGradient id="paint5_linear" x1="445.225" y1="657.502" x2="445.225" y2="428.317" gradientUnits="userSpaceOnUse">
<stop stop-color="#0D1727"/>
<stop offset="1" stop-color="#0D1727" stop-opacity="0"/>
</linearGradient>
<linearGradient id="paint6_linear" x1="461.04" y1="657.205" x2="461.04" y2="408.517" gradientUnits="userSpaceOnUse">
<stop stop-color="#0D1727"/>
<stop offset="1" stop-color="#0D1727" stop-opacity="0"/>
</linearGradient>
<linearGradient id="paint7_linear" x1="476.89" y1="655.122" x2="476.89" y2="390.577" gradientUnits="userSpaceOnUse">
<stop stop-color="#0D1727"/>
<stop offset="1" stop-color="#0D1727" stop-opacity="0"/>
</linearGradient>
<linearGradient id="paint8_linear" x1="492.95" y1="651.685" x2="492.95" y2="374.427" gradientUnits="userSpaceOnUse">
<stop stop-color="#0D1727"/>
<stop offset="1" stop-color="#0D1727" stop-opacity="0"/>
</linearGradient>
<linearGradient id="paint9_linear" x1="509.3" y1="647.262" x2="509.3" y2="359.837" gradientUnits="userSpaceOnUse">
<stop stop-color="#0D1727"/>
<stop offset="1" stop-color="#0D1727" stop-opacity="0"/>
</linearGradient>
<linearGradient id="paint10_linear" x1="525.93" y1="641.982" x2="525.93" y2="346.657" gradientUnits="userSpaceOnUse">
<stop stop-color="#0D1727"/>
<stop offset="1" stop-color="#0D1727" stop-opacity="0"/>
</linearGradient>
<linearGradient id="paint11_linear" x1="542.735" y1="635.912" x2="542.735" y2="334.627" gradientUnits="userSpaceOnUse">
<stop stop-color="#0D1727"/>
<stop offset="1" stop-color="#0D1727" stop-opacity="0"/>
</linearGradient>
<linearGradient id="paint12_linear" x1="559.655" y1="629.092" x2="559.655" y2="323.567" gradientUnits="userSpaceOnUse">
<stop stop-color="#0D1727"/>
<stop offset="1" stop-color="#0D1727" stop-opacity="0"/>
</linearGradient>
<linearGradient id="paint13_linear" x1="576.595" y1="621.562" x2="576.595" y2="313.207" gradientUnits="userSpaceOnUse">
<stop stop-color="#0D1727"/>
<stop offset="1" stop-color="#0D1727" stop-opacity="0"/>
</linearGradient>
<linearGradient id="paint14_linear" x1="593.485" y1="613.412" x2="593.485" y2="303.407" gradientUnits="userSpaceOnUse">
<stop stop-color="#0D1727"/>
<stop offset="1" stop-color="#0D1727" stop-opacity="0"/>
</linearGradient>
<linearGradient id="paint15_linear" x1="610.22" y1="604.599" x2="610.22" y2="293.977" gradientUnits="userSpaceOnUse">
<stop stop-color="#0D1727"/>
<stop offset="1" stop-color="#0D1727" stop-opacity="0"/>
</linearGradient>
<linearGradient id="paint16_linear" x1="626.775" y1="595.202" x2="626.775" y2="284.757" gradientUnits="userSpaceOnUse">
<stop stop-color="#0D1727"/>
<stop offset="1" stop-color="#0D1727" stop-opacity="0"/>
</linearGradient>
<linearGradient id="paint17_linear" x1="643.06" y1="585.202" x2="643.06" y2="275.617" gradientUnits="userSpaceOnUse">
<stop stop-color="#0D1727"/>
<stop offset="1" stop-color="#0D1727" stop-opacity="0"/>
</linearGradient>
<linearGradient id="paint18_linear" x1="659.07" y1="574.652" x2="659.07" y2="266.477" gradientUnits="userSpaceOnUse">
<stop stop-color="#0D1727"/>
<stop offset="1" stop-color="#0D1727" stop-opacity="0"/>
</linearGradient>
<linearGradient id="paint19_linear" x1="674.765" y1="563.542" x2="674.765" y2="257.267" gradientUnits="userSpaceOnUse">
<stop stop-color="#0D1727"/>
<stop offset="1" stop-color="#0D1727" stop-opacity="0"/>
</linearGradient>
<linearGradient id="paint20_linear" x1="690.115" y1="551.895" x2="690.115" y2="247.897" gradientUnits="userSpaceOnUse">
<stop stop-color="#0D1727"/>
<stop offset="1" stop-color="#0D1727" stop-opacity="0"/>
</linearGradient>
<linearGradient id="paint21_linear" x1="705.035" y1="539.702" x2="705.035" y2="238.217" gradientUnits="userSpaceOnUse">
<stop stop-color="#0D1727"/>
<stop offset="1" stop-color="#0D1727" stop-opacity="0"/>
</linearGradient>
<linearGradient id="paint22_linear" x1="719.51" y1="526.982" x2="719.51" y2="228.147" gradientUnits="userSpaceOnUse">
<stop stop-color="#0D1727"/>
<stop offset="1" stop-color="#0D1727" stop-opacity="0"/>
</linearGradient>
<linearGradient id="paint23_linear" x1="733.48" y1="513.692" x2="733.48" y2="217.617" gradientUnits="userSpaceOnUse">
<stop stop-color="#0D1727"/>
<stop offset="1" stop-color="#0D1727" stop-opacity="0"/>
</linearGradient>
<linearGradient id="paint24_linear" x1="746.885" y1="499.892" x2="746.885" y2="206.527" gradientUnits="userSpaceOnUse">
<stop stop-color="#0D1727"/>
<stop offset="1" stop-color="#0D1727" stop-opacity="0"/>
</linearGradient>
<linearGradient id="paint25_linear" x1="759.705" y1="485.522" x2="759.705" y2="194.827" gradientUnits="userSpaceOnUse">
<stop stop-color="#0D1727"/>
<stop offset="1" stop-color="#0D1727" stop-opacity="0"/>
</linearGradient>
<linearGradient id="paint26_linear" x1="771.92" y1="470.552" x2="771.92" y2="182.507" gradientUnits="userSpaceOnUse">
<stop stop-color="#0D1727"/>
<stop offset="1" stop-color="#0D1727" stop-opacity="0"/>
</linearGradient>
<linearGradient id="paint27_linear" x1="783.485" y1="454.974" x2="783.485" y2="169.507" gradientUnits="userSpaceOnUse">
<stop stop-color="#0D1727"/>
<stop offset="1" stop-color="#0D1727" stop-opacity="0"/>
</linearGradient>
<linearGradient id="paint28_linear" x1="794.39" y1="438.704" x2="794.39" y2="155.877" gradientUnits="userSpaceOnUse">
<stop stop-color="#0D1727"/>
<stop offset="1" stop-color="#0D1727" stop-opacity="0"/>
</linearGradient>
<linearGradient id="paint29_linear" x1="804.62" y1="421.722" x2="804.62" y2="141.607" gradientUnits="userSpaceOnUse">
<stop stop-color="#0D1727"/>
<stop offset="1" stop-color="#0D1727" stop-opacity="0"/>
</linearGradient>
<linearGradient id="paint30_linear" x1="814.16" y1="403.882" x2="814.16" y2="126.817" gradientUnits="userSpaceOnUse">
<stop stop-color="#0D1727"/>
<stop offset="1" stop-color="#0D1727" stop-opacity="0"/>
</linearGradient>
<linearGradient id="paint31_linear" x1="822.96" y1="385.072" x2="822.96" y2="111.518" gradientUnits="userSpaceOnUse">
<stop stop-color="#0D1727"/>
<stop offset="1" stop-color="#0D1727" stop-opacity="0"/>
</linearGradient>
<linearGradient id="paint32_linear" x1="831.19" y1="365.492" x2="831.19" y2="95.7774" gradientUnits="userSpaceOnUse">
<stop stop-color="#0D1727"/>
<stop offset="1" stop-color="#0D1727" stop-opacity="0"/>
</linearGradient>
<linearGradient id="paint33_linear" x1="838.86" y1="345.242" x2="838.86" y2="79.6774" gradientUnits="userSpaceOnUse">
<stop stop-color="#0D1727"/>
<stop offset="1" stop-color="#0D1727" stop-opacity="0"/>
</linearGradient>
<linearGradient id="paint34_linear" x1="846" y1="324.234" x2="846" y2="63.2674" gradientUnits="userSpaceOnUse">
<stop stop-color="#0D1727"/>
<stop offset="1" stop-color="#0D1727" stop-opacity="0"/>
</linearGradient>
<linearGradient id="paint35_linear" x1="852.57" y1="302.372" x2="852.57" y2="46.5573" gradientUnits="userSpaceOnUse">
<stop stop-color="#0D1727"/>
<stop offset="1" stop-color="#0D1727" stop-opacity="0"/>
</linearGradient>
<linearGradient id="paint36_linear" x1="858.555" y1="279.542" x2="858.555" y2="29.6474" gradientUnits="userSpaceOnUse">
<stop stop-color="#0D1727"/>
<stop offset="1" stop-color="#0D1727" stop-opacity="0"/>
</linearGradient>
<linearGradient id="paint37_linear" x1="864.385" y1="255.574" x2="864.385" y2="13.5775" gradientUnits="userSpaceOnUse">
<stop stop-color="#0D1727"/>
<stop offset="1" stop-color="#0D1727" stop-opacity="0"/>
</linearGradient>
<linearGradient id="paint38_linear" x1="870.68" y1="230.279" x2="870.68" y2="-0.242426" gradientUnits="userSpaceOnUse">
<stop stop-color="#0D1727"/>
<stop offset="1" stop-color="#0D1727" stop-opacity="0"/>
</linearGradient>
<linearGradient id="paint39_linear" x1="877.31" y1="203.372" x2="877.31" y2="-11.7727" gradientUnits="userSpaceOnUse">
<stop stop-color="#0D1727"/>
<stop offset="1" stop-color="#0D1727" stop-opacity="0"/>
</linearGradient>
<linearGradient id="paint40_linear" x1="884.14" y1="174.472" x2="884.14" y2="-20.9126" gradientUnits="userSpaceOnUse">
<stop stop-color="#0D1727"/>
<stop offset="1" stop-color="#0D1727" stop-opacity="0"/>
</linearGradient>
<linearGradient id="paint41_linear" x1="891.07" y1="142.972" x2="891.07" y2="-27.2926" gradientUnits="userSpaceOnUse">
<stop stop-color="#0D1727"/>
<stop offset="1" stop-color="#0D1727" stop-opacity="0"/>
</linearGradient>
<linearGradient id="paint42_linear" x1="898.08" y1="107.944" x2="898.08" y2="-30.0026" gradientUnits="userSpaceOnUse">
<stop stop-color="#0D1727"/>
<stop offset="1" stop-color="#0D1727" stop-opacity="0"/>
</linearGradient>
<linearGradient id="paint43_linear" x1="917.47" y1="27.1223" x2="917.47" y2="-13.8027" gradientUnits="userSpaceOnUse">
<stop stop-color="#0D1727"/>
<stop offset="1" stop-color="#0D1727" stop-opacity="0"/>
</linearGradient>
<linearGradient id="paint44_linear" x1="905.555" y1="67.7312" x2="905.555" y2="-26.5326" gradientUnits="userSpaceOnUse">
<stop stop-color="#0D1727"/>
<stop offset="1" stop-color="#0D1727" stop-opacity="0"/>
</linearGradient>
<clipPath id="clip0">
<rect width="660" height="687.5" fill="white" transform="translate(986 657.5) rotate(-180)"/>
</clipPath>
<clipPath id="clip1">
<rect width="240" height="36" fill="white" transform="translate(706 584)"/>
</clipPath>
</defs>
</svg>
