<svg xmlns="http://www.w3.org/2000/svg" xmlns:xlink="http://www.w3.org/1999/xlink" viewBox="0 0 428.47 84.18"><defs><style>.cls-1{fill:#0d1727;}.cls-2{fill:#a7a9ac;}.cls-3{fill:url(#Gradient_bez_nazwy_40);}.cls-4{fill:url(#Gradient_bez_nazwy_40-2);}.cls-5{fill:url(#Gradient_bez_nazwy_23);}.cls-6{fill:url(#Gradient_bez_nazwy_23-2);}.cls-7{fill:url(#Gradient_bez_nazwy_23-3);}.cls-8{fill:url(#Gradient_bez_nazwy_23-4);}</style><linearGradient id="Gradient_bez_nazwy_40" x1="48.21" y1="24.1" x2="75.72" y2="24.1" gradientUnits="userSpaceOnUse"><stop offset="0" stop-color="#bcbec0"/><stop offset="1" stop-color="#6d6e71"/></linearGradient><linearGradient id="Gradient_bez_nazwy_40-2" x1="72.53" y1="24.5" x2="100.04" y2="24.5" xlink:href="#Gradient_bez_nazwy_40"/><linearGradient id="Gradient_bez_nazwy_23" x1="45.25" y1="23.73" x2="75.37" y2="23.73" gradientUnits="userSpaceOnUse"><stop offset="0" stop-color="#231f20"/><stop offset="1" stop-color="#58595b"/></linearGradient><linearGradient id="Gradient_bez_nazwy_23-2" x1="21.22" y1="24.3" x2="51.11" y2="24.3" xlink:href="#Gradient_bez_nazwy_23"/><linearGradient id="Gradient_bez_nazwy_23-3" x1="1.25" y1="50.9" x2="120" y2="50.9" xlink:href="#Gradient_bez_nazwy_23"/><linearGradient id="Gradient_bez_nazwy_23-4" x1="0" y1="51.14" x2="121.25" y2="51.14" xlink:href="#Gradient_bez_nazwy_23"/></defs><g id="Layer_2" data-name="Layer 2"><g id="Layer_1-2" data-name="Layer 1"><path class="cls-1" d="M157.89,28,153,41.74h-1.85L139.52,8.94h2.14L151.71,37.7l.46,1.45.46-1.45L157,25.4,151.07,8.94h2l4.8,13.8,4.79-13.8h2L158.81,25.4l4.33,12.3.46,1.45.47-1.45,10-28.76h2.14l-11.66,32.8h-1.85Z"/><path class="cls-1" d="M187.92,8.94l11.67,32.8h-2.14l-4.33-12.41H180.76l-4.33,12.41H174.3L186,8.94Zm-6.58,18.77h11.2l-5.25-15.24-.35-1.22-.34,1.22Z"/><path class="cls-1" d="M209.56,10.73v31h-2v-31H196.05V8.94h25.06v1.79Z"/><path class="cls-1" d="M224.87,41.74V8.94h17.32v1.79H226.83V24.3h11.9V26h-11.9V40H243v1.79Z"/><path class="cls-1" d="M264.77,18.41c0,5-3.41,8.44-8.49,9.3l7.56,10.92c.87,1.27,1.68,2,2.83,2a2.77,2.77,0,0,0,2.26-1.22l.81.81a4,4,0,0,1-3.47,2c-2.19,0-3.18-1.15-4.22-2.71l-8-11.61h-5v13.8h-2V8.94h6.52C260.67,8.94,264.77,12.64,264.77,18.41Zm-11.55,8c5.54,0,9.47-3,9.47-8s-3.18-7.68-9.18-7.68h-4.39V26.38Z"/><path class="cls-1" d="M287,41.74H274.54V8.94h11c7.22,0,10.86,4.33,10.86,9a8.68,8.68,0,0,1-3.3,6.7,8.84,8.84,0,0,1,4.8,7.8C297.87,38.34,293.07,41.74,287,41.74Zm-2.54-27.6h-3.64V22.4h4.85a11.55,11.55,0,0,1,2,.11,4.74,4.74,0,0,0,2.25-4C289.9,15.7,288,14.14,284.41,14.14Zm.46,13h-4.1v9.3h5c3.29,0,5.6-1.73,5.6-4.62C291.34,29.27,289.15,27.13,284.87,27.13Z"/><path class="cls-1" d="M321.8,42.32c-3.41,0-5.14-1.27-7.39-4.73l-5.49-8.38h-1.67V41.74H301V8.94h9.76c7.45,0,11.78,3.76,11.78,9.65,0,5.31-4.39,8.31-7,9.76l5,7.27c.86,1.33,1.67,2,2.89,2a3.29,3.29,0,0,0,2.31-1.38L328,38.51C327.58,39.09,325.73,42.32,321.8,42.32Zm-11-27.89h-3.52v9.7H310c3.41,0,6.29-2.14,6.29-5.08S314.35,14.43,310.77,14.43Z"/><path class="cls-1" d="M331,41.74V8.94h6.24v32.8Z"/><path class="cls-1" d="M352,41.74H341V8.94h10.69c9.64,0,19.11,5.89,19.11,16.52S361.59,41.74,352,41.74Zm-.12-27.31h-4.62V36.14h4.85c7.16,0,12.24-4,12.24-10.68S359,14.43,351.89,14.43Z"/><path class="cls-1" d="M392.16,42.73c-9.7,0-18.48-7.16-18.48-17.33S382.4,8,392.16,8a29.57,29.57,0,0,1,11.72,2.25v6.18a25.11,25.11,0,0,0-11-2.94c-6.64,0-12.47,4.91-12.47,11.89a11.81,11.81,0,0,0,12,11.84,22.76,22.76,0,0,0,5.2-.63V26h6.23V40.42A27,27,0,0,1,392.16,42.73Z"/><path class="cls-1" d="M407.85,41.74V8.94h19.87v5.49H414.09v8h10.16v5.42H414.09v8.38h14.38v5.48Z"/><path class="cls-2" d="M309,59.5v4h-.84V53.6h3.39a3.62,3.62,0,0,1,2.45.79,2.77,2.77,0,0,1,.9,2.19,2.72,2.72,0,0,1-.87,2.16,3.65,3.65,0,0,1-2.5.76Zm0-.71h2.55a2.66,2.66,0,0,0,1.86-.58,2.08,2.08,0,0,0,.65-1.62,2.21,2.21,0,0,0-.64-1.65,2.57,2.57,0,0,0-1.82-.63H309Z"/><path class="cls-2" d="M328.93,60.76h-4.52l-1,2.79h-.88l3.77-9.95h.8l3.76,9.95H330Zm-4.26-.71h4l-2-5.42Z"/><path class="cls-2" d="M343.72,59.41h-2.9v4.14H340V53.6h3.23a3.73,3.73,0,0,1,2.49.77,2.73,2.73,0,0,1,.89,2.16,2.67,2.67,0,0,1-.56,1.69,2.9,2.9,0,0,1-1.5,1L347,63.47v.08h-.9Zm-2.9-.72h2.58a2.38,2.38,0,0,0,1.7-.6,2,2,0,0,0,.65-1.56,2.09,2.09,0,0,0-.67-1.64,2.84,2.84,0,0,0-1.88-.58h-2.38Z"/><path class="cls-2" d="M362.79,54.31h-3.41v9.24h-.84V54.31h-3.41V53.6h7.66Z"/><path class="cls-2" d="M379.51,63.55h-.84L372.94,55v8.51h-.84V53.6h.84l5.73,8.53V53.6h.84Z"/><path class="cls-2" d="M395.23,58.78h-4.65v4.06h5.35v.71h-6.19V53.6h6.16v.71h-5.32v3.76h4.65Z"/><path class="cls-2" d="M409.12,59.41h-2.89v4.14h-.85V53.6h3.23a3.71,3.71,0,0,1,2.49.77,2.95,2.95,0,0,1,.34,3.85,3,3,0,0,1-1.51,1l2.49,4.24v.08h-.89Zm-2.89-.72h2.57a2.41,2.41,0,0,0,1.71-.6,2,2,0,0,0,.64-1.56,2.06,2.06,0,0,0-.67-1.64,2.82,2.82,0,0,0-1.88-.58h-2.37Z"/><path class="cls-2" d="M427.62,61.11A1.6,1.6,0,0,0,427,59.8a6.21,6.21,0,0,0-2.13-.92,7.44,7.44,0,0,1-2.25-.94,2.31,2.31,0,0,1-.08-3.76,3.86,3.86,0,0,1,2.41-.72,3.9,3.9,0,0,1,1.77.39A2.94,2.94,0,0,1,428,54.91a2.89,2.89,0,0,1,.43,1.53h-.85a2.07,2.07,0,0,0-.7-1.64,2.67,2.67,0,0,0-1.87-.62,3,3,0,0,0-1.82.51,1.59,1.59,0,0,0-.68,1.33,1.53,1.53,0,0,0,.61,1.24,5.64,5.64,0,0,0,1.95.84,9.63,9.63,0,0,1,2,.76,2.9,2.9,0,0,1,1,.94,2.4,2.4,0,0,1,.35,1.29,2.26,2.26,0,0,1-.94,1.89,4.05,4.05,0,0,1-2.48.71,4.85,4.85,0,0,1-1.93-.37,3,3,0,0,1-1.33-1.06,2.67,2.67,0,0,1-.46-1.55h.84a2,2,0,0,0,.79,1.66,3.29,3.29,0,0,0,2.09.61,3.14,3.14,0,0,0,1.87-.51A1.63,1.63,0,0,0,427.62,61.11Z"/><polygon class="cls-3" points="75.72 48.2 69.5 48.2 62.73 34.71 62.3 33.83 61.86 32.96 60.78 30.79 60.35 29.93 59.91 29.07 51.05 11.38 50.61 10.49 50.16 9.61 49.05 7.37 48.61 6.49 48.21 5.7 48.63 4.74 49.09 3.83 50.16 1.73 51.05 0 51.48 0.86 51.93 1.73 53.01 3.84 53.48 4.73 59.91 17.31 62.97 23.29 63.4 24.14 63.84 24.99 64.89 27.04 65.78 28.77 75.72 48.2"/><polygon class="cls-4" points="100.04 48.6 93.81 48.6 87.05 35.11 86.62 34.23 86.18 33.36 85.1 31.19 84.67 30.33 84.23 29.47 75.37 11.78 74.93 10.89 74.48 10.01 73.37 7.77 72.92 6.89 72.53 6.09 72.95 5.13 73.41 4.23 74.48 2.12 75.37 0.4 75.8 1.26 76.25 2.12 77.33 4.24 77.79 5.13 84.23 17.71 87.29 23.68 87.72 24.54 88.16 25.39 89.21 27.44 90.1 29.17 100.04 48.6"/><polygon class="cls-5" points="75.37 0.4 74.48 2.12 73.41 4.23 72.95 5.13 65.9 18.92 63.44 23.65 63.45 23.68 62.59 25.39 61.53 27.45 60.65 29.18 60.62 29.14 51.24 47.47 45.25 47.47 57.82 23.65 58.26 22.8 58.7 21.95 59.73 19.97 60.18 19.13 60.62 18.28 70.14 0 75.17 0 75.36 0.38 75.37 0.4"/><polygon class="cls-6" points="51.11 0 50.73 0.97 50.36 1.94 49.52 4.07 49.12 5.08 48.73 6.09 48.56 6.45 27.44 48.6 21.22 48.6 46.09 0 51.11 0"/><path class="cls-7" d="M120,54.72v1.8a185.8,185.8,0,0,0-45.3-9.08c-1.44-.12-2.86-.2-4.3-.27h0c-3.21-.16-6.42-.25-9.66-.25s-6.59.09-9.86.25h0c-1.44.09-2.87.17-4.29.29A186.11,186.11,0,0,0,1.25,56.59v-1.8a184.2,184.2,0,0,1,21.26-5.7c1.57-.33,3.16-.63,4.76-.92a181.54,181.54,0,0,1,19.92-2.48c1.42-.1,2.84-.19,4.28-.27,3.07-.13,6.16-.22,9.26-.22s6.05.07,9.06.22c1.42.07,2.85.15,4.27.25A186.66,186.66,0,0,1,94,48.14h0c1.61.29,3.18.59,4.75.92A183.16,183.16,0,0,1,120,54.72Z"/><path class="cls-8" d="M0,58.33V53.89l.86-.29a184.19,184.19,0,0,1,21.4-5.73c1.58-.34,3.17-.64,4.79-.93a183.49,183.49,0,0,1,20.06-2.5c1.42-.1,2.84-.19,4.28-.27,7.19-.31,12.86-.28,18.46,0,1.42.07,2.87.15,4.3.25a187.63,187.63,0,0,1,19.93,2.47l.12,0c1.62.28,3.2.59,4.79.92a186.77,186.77,0,0,1,21.4,5.7l.86.29v4.44l-1.65-.55a185.26,185.26,0,0,0-45-9c-1.43-.12-2.83-.2-4.26-.27a193.32,193.32,0,0,0-19.41,0c-1.43.09-2.86.17-4.27.28a185.15,185.15,0,0,0-45,9.08Z"/><path class="cls-2" d="M95.22,58.86,75.16,84.18h-5l-9.5-11.81L51.12,84.18h-5l-.2-.25L26,58.9l.78-.15.78-.12.76-.14c.51-.08,1-.17,1.53-.24l.8-.13.79-.12L48.73,80.24l.15-.23L57.82,68.9,47.48,56.27l.85-.07.83,0c.61,0,1.22-.07,1.83-.1l.47,0,.85,0,.86,0,7.46,9.4L68.08,56c.29,0,.56,0,.85,0l.87,0c.16,0,.32,0,.49,0q.9,0,1.8.09l.84,0c.27,0,.56,0,.85.06L63.44,68.91l9.09,11.33L72.7,80,89.77,58l.82.11.79.14,1.55.25c.25,0,.49.08.74.12l.77.13Z"/></g></g></svg>