<svg width="215" height="42" viewBox="0 0 215 42" fill="none" xmlns="http://www.w3.org/2000/svg">
<g clip-path="url(#clip0)">
<path d="M37.4679 23.9831H34.3881L31.0412 17.2655L30.8276 16.8299L30.608 16.3944L30.0739 15.3206L29.8603 14.891L29.6467 14.4615L25.2614 5.66169L25.0418 5.22021L24.8222 4.77873L24.2704 3.66906L24.0508 3.22758L23.855 2.83383L24.0627 2.35655L24.2882 1.9091L24.8222 0.859097L25.2614 0L25.475 0.429548L25.6946 0.859097L26.2286 1.9091L26.4601 2.35058L29.6467 8.61483L31.1599 11.5859L31.3735 12.0095L31.5872 12.433L32.1094 13.4532L32.5485 14.3123L37.4679 23.9831Z" fill="#AFAFAF"/>
<path d="M49.5028 24.1809H46.423L43.0761 17.4692L42.8625 17.0277L42.6429 16.5981L42.1089 15.5183L41.8952 15.0888L41.6816 14.6592L37.2963 5.85944L37.0767 5.41796L36.8572 4.97648L36.3053 3.86681L36.0857 3.4313L35.8899 3.03158L36.0976 2.5543L36.3231 2.10686L36.8572 1.05685L37.2963 0.197754L37.5099 0.627302L37.7295 1.05685L38.2635 2.10686L38.495 2.54834L41.6816 8.81258L43.1948 11.7836L43.4084 12.2072L43.6221 12.6308L44.1443 13.651L44.5834 14.5101L49.5028 24.1809Z" fill="#AFAFAF"/>
<path d="M37.2967 0.196876L36.8575 1.05597L36.3235 2.10598L36.098 2.55343L32.6087 9.4083L31.3922 11.7648L31.3981 11.7827L30.9709 12.6299L30.4487 13.6561L30.0096 14.5152L29.9977 14.4973L25.3572 23.6132H22.3901L28.6091 11.7648L28.8287 11.3413L29.0482 10.9177L29.5586 9.93927L29.7781 9.51569L29.9977 9.0921L34.7094 0H37.1958L37.2907 0.19091L37.2967 0.196876Z" fill="#0D1727"/>
<path d="M25.2906 0L25.1007 0.483242L24.9168 0.960518L24.5014 2.02246L24.3056 2.5236L24.1097 3.0307L24.0267 3.20968L13.5766 24.18H10.4968L22.8042 0H25.2906Z" fill="#0D1727"/>
<path d="M59.3834 27.2225V28.1173C52.2505 25.725 44.7379 24.1739 36.9642 23.5952C36.2521 23.5355 35.5519 23.4937 34.8398 23.4639H34.8339C33.2495 23.3804 31.6591 23.3386 30.0569 23.3386C28.4131 23.3386 26.7931 23.3804 25.1731 23.4639H25.1612C24.4491 23.5057 23.737 23.5474 23.0368 23.6071C15.2512 24.1858 7.73863 25.7489 0.617676 28.1531V27.2582C4.04167 26.1128 7.54874 25.1642 11.1389 24.4244C11.9163 24.2574 12.6996 24.1082 13.4947 23.965C16.7229 23.3744 20.0163 22.9628 23.3513 22.7301C24.0516 22.6824 24.7577 22.6406 25.4639 22.5988C26.983 22.5332 28.514 22.4915 30.051 22.4915C31.5523 22.4915 33.0418 22.5273 34.5312 22.5988C35.2315 22.6346 35.9436 22.6764 36.6438 22.7241C39.9728 22.9568 43.2603 23.3744 46.4944 23.9531H46.5004C47.2956 24.0963 48.0729 24.2454 48.8444 24.4125C52.4464 25.1403 55.9594 26.083 59.3834 27.2225Z" fill="#0D1727"/>
<path d="M0 29.0183V26.8049L0.421323 26.6618C3.86312 25.5103 7.42953 24.5498 11.0137 23.81C11.7911 23.643 12.5863 23.4938 13.3874 23.3507C16.6452 22.7541 19.9862 22.3364 23.3093 22.1038C24.0154 22.056 24.7157 22.0143 25.4337 21.9725C28.9882 21.8174 31.7951 21.8353 34.5663 21.9725C35.2725 22.0083 35.9846 22.0501 36.6967 22.0978C39.9723 22.3245 43.2954 22.7421 46.5592 23.3268L46.6185 23.3387C47.4196 23.4819 48.2029 23.6311 48.9863 23.7981C52.523 24.52 56.0894 25.4686 59.5787 26.6319L60.0059 26.7751V28.9885L59.193 28.714C51.9771 26.2919 44.4822 24.7825 36.9281 24.2276C36.216 24.168 35.5217 24.1262 34.8215 24.0964C31.6052 23.9293 28.3948 23.9353 25.2141 24.0964C24.502 24.1382 23.7959 24.1799 23.1016 24.2336C15.5296 24.8004 8.03481 26.3157 0.830778 28.7498L0 29.0183Z" fill="#0D1727"/>
<path d="M47.1173 29.2868L37.1895 41.875H34.7031L30.0033 36.0045L25.2975 41.875H22.7992L22.7043 41.7497L12.8833 29.2987C13.0139 29.2749 13.1385 29.251 13.269 29.2271C13.3996 29.2092 13.5242 29.1854 13.6547 29.1675C13.7794 29.1436 13.9099 29.1197 14.0345 29.1018C14.2838 29.0601 14.533 29.0183 14.7882 28.9825C14.9187 28.9527 15.0493 28.9348 15.1857 28.9169C15.3163 28.899 15.4468 28.8751 15.5774 28.8632L24.1107 39.9241L24.1878 39.8108L28.6087 34.2803L23.4935 27.9981C23.6359 27.9802 23.7724 27.9743 23.9148 27.9623C24.0513 27.9504 24.1878 27.9444 24.3243 27.9385C24.6269 27.9146 24.9296 27.9027 25.2322 27.8907C25.3094 27.8848 25.3865 27.8848 25.4636 27.8788C25.6061 27.8728 25.7425 27.8669 25.885 27.8609C26.0274 27.855 26.1698 27.849 26.3122 27.843L30.0033 32.5203L33.6883 27.843C33.8308 27.843 33.9672 27.849 34.1097 27.8609C34.2521 27.8669 34.3945 27.8728 34.5369 27.8788C34.62 27.8848 34.6971 27.8848 34.7802 27.8907C35.0769 27.9027 35.3736 27.9206 35.6703 27.9385C35.8068 27.9444 35.9492 27.9504 36.0857 27.9623C36.2222 27.9743 36.3646 27.9802 36.5071 27.9922L31.3918 34.2803L35.8899 39.9181L35.973 39.8048L44.4232 28.8453C44.5597 28.8632 44.6902 28.8871 44.8267 28.899C44.9572 28.9229 45.0878 28.9467 45.2183 28.9646C45.4735 29.0064 45.7287 29.0422 45.9838 29.0899C46.1085 29.1078 46.2271 29.1317 46.3518 29.1496C46.4823 29.1675 46.6069 29.1913 46.7315 29.2092C46.8621 29.2391 46.9926 29.2629 47.1173 29.2868Z" fill="#737373"/>
</g>
<path d="M79.072 19.3895L81.466 13.5095H79.261L78.064 16.7645L76.867 13.5095H74.662L77.056 19.3895L75.964 22.1825L72.625 13.5095H70.21L75.04 25.4375H76.531L78.064 21.6365L79.597 25.4375H81.088L85.918 13.5095H83.503L80.164 22.1825L79.072 19.3895ZM98.4483 25.4375L93.8283 13.5095H91.8753L87.2553 25.4375H89.6073L90.8043 22.0775H94.8363L96.0333 25.4375H98.4483ZM94.2273 20.3345H91.4133L92.8203 16.3655L94.2273 20.3345ZM110.396 15.4835V13.5095H99.7068V15.4835H103.907V25.4375H106.196V15.4835H110.396ZM121.553 25.4375V23.4425H116.324V20.3975H120.02V18.4235H116.324V15.5045H121.28V13.5095H114.056V25.4375H121.553ZM135.679 24.2615L134.881 23.4425C134.65 23.6945 134.398 23.9465 134.041 23.9465C133.6 23.9465 133.306 23.6945 132.991 23.2115L131.164 20.5655C132.109 20.0405 133.705 18.9485 133.705 17.0165C133.705 14.8745 132.13 13.5095 129.421 13.5095H125.872V25.4375H128.14V20.8805H128.749L130.744 23.9255C131.563 25.1855 132.193 25.6475 133.432 25.6475C134.86 25.6475 135.532 24.4715 135.679 24.2615ZM131.437 17.1845C131.437 18.2555 130.387 19.0325 129.148 19.0325H128.14V15.5045H129.421C130.723 15.5045 131.437 16.0925 131.437 17.1845ZM142.257 22.7495V20.3135H142.992C144.084 20.3135 144.63 20.8805 144.63 21.5315C144.63 22.3085 144.063 22.7495 143.202 22.7495H142.257ZM138.918 25.4375H143.832C146.331 25.4375 147.948 23.9045 147.948 21.9935C147.948 20.1245 146.436 19.2845 146.268 19.1795C146.394 19.0745 147.402 18.2555 147.402 16.7855C147.402 15.1055 146.142 13.5095 143.391 13.5095H138.918V25.4375ZM142.824 16.1765C143.685 16.1765 144.147 16.5965 144.147 17.3105C144.147 17.9615 143.685 18.2765 143.601 18.3395C143.58 18.3395 143.433 18.3185 143.013 18.3185H142.257V16.1765H142.824ZM161.954 22.7495C161.912 22.7915 161.702 22.9805 161.345 22.9805C161.009 22.9805 160.757 22.8125 160.547 22.4555L159.119 20.2505C159.371 20.0825 160.82 19.2215 160.82 17.2685C160.82 14.9795 159.119 13.5095 156.2 13.5095H152.231V25.4375H155.57V21.1115H155.906L157.229 23.5475C157.901 24.8075 158.636 25.6475 160.232 25.6475C161.786 25.6475 162.794 24.4715 162.878 24.3665L161.954 22.7495ZM155.57 18.8435V16.2185H156.095C156.914 16.2185 157.481 16.7015 157.481 17.5415C157.481 18.4445 156.683 18.8435 156.011 18.8435H155.57ZM169.829 25.4375V13.5095H166.49V25.4375H169.829ZM186.091 19.5155C186.091 15.6515 182.647 13.5095 179.119 13.5095H174.94V25.4375H179.203C182.731 25.4375 186.091 23.4215 186.091 19.5155ZM182.647 19.5155C182.647 21.4265 181.219 22.6445 179.245 22.6445H178.279V16.3025H179.182C181.135 16.3025 182.647 17.5835 182.647 19.5155ZM189.754 19.4735C189.754 22.9595 192.484 25.7735 196.621 25.7735C198.217 25.7735 199.561 25.4375 200.674 24.8705V19.7255H197.503V22.8545H197.188C194.794 22.8545 193.24 21.3425 193.24 19.4945C193.24 17.6255 194.794 16.1135 197.188 16.1135C198.364 16.1135 199.666 16.4285 200.674 16.9535V14.0975C199.561 13.5095 198.217 13.1735 196.621 13.1735C192.484 13.1735 189.754 16.0085 189.754 19.4735ZM213.589 25.4375V22.6235H208.801V20.6705H212.182V18.1715H208.801V16.3235H213.337V13.5095H205.462V25.4375H213.589Z" fill="#0D1727"/>
<defs>
<clipPath id="clip0">
<rect width="60" height="41.875" fill="white"/>
</clipPath>
</defs>
</svg>
