<svg width="276" height="362" viewBox="0 0 276 362" fill="none" xmlns="http://www.w3.org/2000/svg">
<g opacity="0.1" clip-path="url(#clip0)">
<path d="M271.776 359.728L271.503 359.459C271.027 358.991 271.027 358.227 271.503 357.755L333.275 296.536C333.751 296.068 334.518 296.064 334.994 296.536L335.267 296.805C335.743 297.273 335.743 298.037 335.267 298.509L273.496 359.728C273.02 360.196 272.252 360.196 271.776 359.728Z" fill="#0D1727"/>
<path d="M264.786 356.78L264.514 356.511C264.038 356.039 264.038 355.279 264.514 354.811L333.654 286.292C334.13 285.823 334.898 285.82 335.374 286.292L335.647 286.56C336.123 287.029 336.123 287.793 335.647 288.261L266.502 356.78C266.03 357.252 265.258 357.252 264.786 356.78Z" fill="#0D1727"/>
<path d="M258.476 353.156L258.204 352.884C257.728 352.416 257.728 351.652 258.204 351.183L333.328 276.734C333.804 276.266 334.572 276.262 335.048 276.734L335.321 277.003C335.797 277.471 335.797 278.235 335.321 278.703L260.196 353.156C259.724 353.625 258.952 353.625 258.476 353.156Z" fill="#0D1727"/>
<path d="M252.657 349.042L252.385 348.769C251.909 348.301 251.909 347.537 252.385 347.069L332.484 267.691C332.96 267.219 333.728 267.219 334.204 267.691L334.476 267.96C334.952 268.428 334.952 269.192 334.476 269.66L254.377 349.038C253.901 349.51 253.133 349.514 252.657 349.042Z" fill="#0D1727"/>
<path d="M247.23 344.539L246.957 344.271C246.481 343.802 246.481 343.038 246.957 342.57L331.24 259.039C331.716 258.571 332.484 258.567 332.96 259.039L333.232 259.308C333.708 259.776 333.708 260.54 333.232 261.008L248.949 344.535C248.473 345.007 247.706 345.007 247.23 344.539Z" fill="#0D1727"/>
<path d="M242.121 339.726L241.848 339.457C241.372 338.989 241.372 338.225 241.848 337.757L329.678 250.718C330.154 250.249 330.922 250.246 331.398 250.718L331.67 250.99C332.146 251.458 332.146 252.222 331.67 252.691L243.84 339.726C243.364 340.194 242.597 340.194 242.121 339.726Z" fill="#0D1727"/>
<path d="M237.273 334.655L237.001 334.387C236.525 333.918 236.525 333.155 237.001 332.686L327.824 242.68C328.3 242.212 329.068 242.212 329.544 242.68L329.816 242.953C330.292 243.421 330.292 244.185 329.816 244.653L238.993 334.655C238.517 335.124 237.749 335.128 237.273 334.655Z" fill="#0D1727"/>
<path d="M232.648 329.362L232.375 329.094C231.899 328.625 231.899 327.861 232.375 327.393L325.721 234.884C326.197 234.416 326.964 234.412 327.44 234.884L327.713 235.157C328.189 235.625 328.189 236.389 327.713 236.857L234.371 329.362C233.895 329.831 233.124 329.831 232.648 329.362Z" fill="#0D1727"/>
<path d="M228.214 323.881L227.942 323.608C227.466 323.14 227.466 322.376 227.942 321.908L323.318 227.388C323.794 226.92 324.562 226.916 325.038 227.388L325.31 227.657C325.786 228.125 325.786 228.889 325.31 229.361L229.938 323.877C229.462 324.349 228.694 324.349 228.214 323.881Z" fill="#0D1727"/>
<path d="M223.965 318.216L223.693 317.947C223.217 317.475 223.217 316.715 223.693 316.246L320.62 220.191C321.096 219.719 321.863 219.719 322.339 220.191L322.612 220.46C323.088 220.928 323.088 221.692 322.612 222.16L225.689 318.216C225.213 318.684 224.441 318.688 223.965 318.216Z" fill="#0D1727"/>
<path d="M219.874 312.397L219.601 312.128C219.125 311.66 219.125 310.896 219.601 310.428L317.672 213.24C318.148 212.771 318.915 212.771 319.391 213.24L319.664 213.512C320.14 213.98 320.14 214.744 319.664 215.213L221.593 312.4C221.117 312.869 220.346 312.869 219.874 312.397Z" fill="#0D1727"/>
<path d="M215.92 306.443L215.647 306.175C215.172 305.706 215.172 304.942 215.647 304.474L314.49 206.519C314.966 206.046 315.733 206.046 316.209 206.519L316.482 206.791C316.958 207.259 316.958 208.023 316.482 208.492L217.64 306.447C217.164 306.912 216.396 306.912 215.92 306.443Z" fill="#0D1727"/>
<path d="M212.101 300.352L211.828 300.079C211.352 299.611 211.352 298.847 211.828 298.379L311.096 200.005C311.572 199.533 312.34 199.533 312.816 200.005L313.089 200.274C313.565 200.742 313.565 201.506 313.089 201.974L213.82 300.352C213.344 300.82 212.577 300.82 212.101 300.352Z" fill="#0D1727"/>
<path d="M208.089 294.437L207.817 294.168C207.341 293.696 207.341 292.936 207.817 292.468L307.507 193.675C307.983 193.203 308.751 193.203 309.227 193.675L309.5 193.944C309.976 194.412 309.976 195.176 309.5 195.644L209.809 294.437C209.333 294.905 208.565 294.905 208.089 294.437Z" fill="#0D1727"/>
<path d="M203.426 289.186L203.153 288.917C202.677 288.449 202.677 287.685 203.153 287.213L303.746 187.526C304.222 187.058 304.989 187.054 305.465 187.526L305.738 187.795C306.214 188.263 306.214 189.027 305.738 189.495L205.145 289.182C204.67 289.654 203.898 289.654 203.426 289.186Z" fill="#0D1727"/>
<path d="M198.11 284.576L197.837 284.307C197.361 283.839 197.361 283.075 197.837 282.607L299.808 181.55C300.284 181.082 301.055 181.078 301.528 181.55L301.8 181.819C302.276 182.287 302.276 183.051 301.8 183.519L199.83 284.576C199.357 285.044 198.586 285.044 198.11 284.576Z" fill="#0D1727"/>
<path d="M192.141 280.619L191.869 280.35C191.393 279.882 191.393 279.118 191.869 278.649L295.716 175.735C296.192 175.266 296.96 175.263 297.436 175.735L297.708 176.003C298.184 176.472 298.184 177.236 297.708 177.704L193.861 280.615C193.389 281.087 192.617 281.087 192.141 280.619Z" fill="#0D1727"/>
<path d="M185.539 277.287L185.267 277.018C184.791 276.55 184.791 275.786 185.267 275.318L291.459 170.077C291.935 169.605 292.703 169.605 293.179 170.077L293.451 170.346C293.927 170.814 293.927 171.578 293.451 172.046L187.259 277.283C186.783 277.755 186.015 277.755 185.539 277.287Z" fill="#0D1727"/>
<path d="M178.323 274.562L178.05 274.289C177.574 273.821 177.574 273.057 178.05 272.589L287.041 164.577C287.513 164.104 288.285 164.104 288.761 164.577L289.033 164.845C289.509 165.314 289.509 166.077 289.033 166.546L180.042 274.558C179.566 275.03 178.799 275.03 178.323 274.562Z" fill="#0D1727"/>
<path d="M170.508 272.431L170.235 272.159C169.759 271.691 169.759 270.927 170.235 270.458L282.477 159.226C282.953 158.758 283.721 158.754 284.197 159.226L284.47 159.495C284.945 159.963 284.945 160.727 284.47 161.195L172.227 272.431C171.752 272.9 170.984 272.9 170.508 272.431Z" fill="#0D1727"/>
<path d="M162.129 270.861L161.856 270.593C161.381 270.121 161.381 269.361 161.856 268.892L277.749 154.044C278.225 153.572 278.992 153.572 279.468 154.044L279.741 154.313C280.217 154.781 280.217 155.545 279.741 156.013L163.849 270.858C163.373 271.33 162.605 271.33 162.129 270.861Z" fill="#0D1727"/>
<path d="M153.201 269.833L152.928 269.56C152.452 269.092 152.452 268.328 152.928 267.86L272.866 149C273.342 148.532 274.11 148.528 274.586 149L274.858 149.273C275.334 149.741 275.334 150.505 274.858 150.973L154.92 269.833C154.444 270.301 153.677 270.305 153.201 269.833Z" fill="#0D1727"/>
<path d="M143.777 269.288L143.505 269.015C143.029 268.547 143.029 267.783 143.505 267.315L267.819 144.122C268.295 143.65 269.062 143.65 269.538 144.122L269.811 144.39C270.287 144.859 270.287 145.623 269.811 146.091L145.497 269.288C145.021 269.756 144.253 269.76 143.777 269.288Z" fill="#0D1727"/>
<path d="M133.913 269.184L133.64 268.915C133.164 268.447 133.164 267.683 133.64 267.215L262.61 139.404C263.086 138.936 263.854 138.932 264.329 139.404L264.602 139.673C265.078 140.141 265.078 140.905 264.602 141.374L135.632 269.184C135.156 269.652 134.385 269.652 133.913 269.184Z" fill="#0D1727"/>
<path d="M123.714 269.414L123.442 269.146C122.966 268.677 122.966 267.914 123.442 267.445L257.233 134.856C257.709 134.384 258.476 134.384 258.952 134.856L259.225 135.125C259.701 135.593 259.701 136.357 259.225 136.825L125.434 269.414C124.958 269.883 124.19 269.883 123.714 269.414Z" fill="#0D1727"/>
<path d="M113.301 269.863L113.028 269.591C112.552 269.123 112.552 268.359 113.028 267.887L251.69 130.473C252.166 130.004 252.934 130 253.41 130.473L253.682 130.741C254.158 131.209 254.158 131.973 253.682 132.442L115.02 269.856C114.545 270.332 113.773 270.332 113.301 269.863Z" fill="#0D1727"/>
<path d="M103.202 269.994L102.929 269.721C102.453 269.253 102.453 268.489 102.929 268.021L245.955 126.277C246.431 125.809 247.199 125.805 247.675 126.277L247.947 126.546C248.423 127.014 248.423 127.778 247.947 128.246L104.921 269.994C104.445 270.462 103.674 270.462 103.202 269.994Z" fill="#0D1727"/>
<path d="M94.5387 268.7L94.2661 268.432C93.7902 267.963 93.7902 267.2 94.2661 266.731L240.044 122.262C240.52 121.794 241.288 121.79 241.764 122.262L242.036 122.531C242.512 122.999 242.512 123.763 242.036 124.231L96.2583 268.7C95.7862 269.169 95.0146 269.173 94.5387 268.7Z" fill="#0D1727"/>
<path d="M86.6622 266.635L86.3897 266.367C85.9137 265.898 85.9137 265.135 86.3897 264.666L233.926 118.451C234.402 117.982 235.169 117.979 235.645 118.451L235.918 118.719C236.394 119.188 236.394 119.952 235.918 120.42L88.3818 266.635C87.9058 267.104 87.1343 267.104 86.6622 266.635Z" fill="#0D1727"/>
<path d="M79.3463 264.01L79.0738 263.741C78.5978 263.273 78.5978 262.509 79.0738 262.041L227.592 114.854C228.068 114.382 228.836 114.382 229.312 114.854L229.584 115.127C230.06 115.595 230.06 116.359 229.584 116.827L81.0659 264.006C80.5899 264.478 79.8223 264.478 79.3463 264.01Z" fill="#0D1727"/>
<path d="M72.4947 260.92L72.2222 260.651C71.7462 260.183 71.7462 259.419 72.2222 258.951L221.036 111.473C221.512 111 222.28 111 222.756 111.473L223.028 111.745C223.504 112.213 223.504 112.977 223.028 113.445L74.2143 260.924C73.7422 261.392 72.9707 261.392 72.4947 260.92Z" fill="#0D1727"/>
<path d="M66.0851 257.4L65.8125 257.128C65.3366 256.659 65.3366 255.896 65.8125 255.427L214.224 108.352C214.7 107.88 215.467 107.88 215.943 108.352L216.216 108.621C216.692 109.089 216.692 109.853 216.216 110.321L67.8047 257.4C67.3287 257.872 66.5572 257.872 66.0851 257.4Z" fill="#0D1727"/>
<path d="M60.0855 253.454L59.813 253.186C59.3371 252.717 59.3371 251.954 59.813 251.485L207.134 105.488C207.61 105.016 208.378 105.016 208.854 105.488L209.126 105.757C209.602 106.225 209.602 106.989 209.126 107.458L61.8051 253.454C61.333 253.926 60.5615 253.926 60.0855 253.454Z" fill="#0D1727"/>
<path d="M54.5392 249.079L54.2666 248.806C53.7907 248.338 53.7907 247.574 54.2666 247.106L199.753 102.924C200.229 102.452 200.997 102.452 201.473 102.924L201.745 103.193C202.221 103.661 202.221 104.425 201.745 104.894L56.2588 249.075C55.7866 249.547 55.0151 249.547 54.5392 249.079Z" fill="#0D1727"/>
<path d="M49.4571 244.238L49.1846 243.97C48.7086 243.501 48.7086 242.738 49.1846 242.269L192.03 100.706C192.506 100.234 193.274 100.234 193.75 100.706L194.022 100.975C194.498 101.443 194.498 102.207 194.022 102.675L51.1767 244.235C50.7046 244.707 49.9331 244.707 49.4571 244.238Z" fill="#0D1727"/>
<path d="M44.8702 238.911L44.5977 238.638C44.1217 238.17 44.1217 237.406 44.5977 236.938L183.92 98.8673C184.395 98.3952 185.163 98.3952 185.639 98.8673L185.912 99.136C186.388 99.6042 186.388 100.368 185.912 100.836L46.5898 238.907C46.1177 239.379 45.3462 239.379 44.8702 238.911Z" fill="#0D1727"/>
<path d="M40.8551 233.015L40.5826 232.746C40.1066 232.278 40.1066 231.514 40.5826 231.046L175.356 97.4778C175.832 97.0095 176.6 97.0057 177.076 97.4778L177.348 97.7465C177.824 98.2148 177.824 98.9786 177.348 99.4469L42.5747 233.015C42.0987 233.483 41.331 233.483 40.8551 233.015Z" fill="#0D1727"/>
<path d="M37.4698 226.494L37.1973 226.221C36.7213 225.753 36.7213 224.989 37.1973 224.521L166.274 96.6065C166.747 96.1344 167.518 96.1344 167.994 96.6065L168.267 96.8752C168.743 97.3434 168.743 98.1073 168.267 98.5756L39.1894 226.49C38.7173 226.962 37.9458 226.962 37.4698 226.494Z" fill="#0D1727"/>
<path d="M34.8517 219.216L34.5791 218.947C34.1032 218.479 34.1032 217.715 34.5791 217.247L156.563 96.3531C157.039 95.8849 157.807 95.881 158.283 96.3531L158.555 96.6257C159.031 97.0939 159.031 97.8578 158.555 98.3261L36.5713 219.212C36.0953 219.684 35.3238 219.684 34.8517 219.216Z" fill="#0D1727"/>
<path d="M33.1515 211.021L32.8789 210.752C32.403 210.284 32.403 209.52 32.8789 209.052L146.111 96.8368C146.587 96.3647 147.355 96.3647 147.831 96.8368L148.103 97.1055C148.579 97.5738 148.579 98.3376 148.103 98.8059L34.8711 211.021C34.3951 211.493 33.6274 211.493 33.1515 211.021Z" fill="#0D1727"/>
<path d="M32.6295 201.667L32.357 201.398C31.881 200.93 31.881 200.166 32.357 199.698L134.711 98.2608C135.187 97.7887 135.955 97.7887 136.431 98.2608L136.703 98.5295C137.179 98.9978 137.179 99.7616 136.703 100.23L34.3491 201.663C33.877 202.135 33.1055 202.135 32.6295 201.667Z" fill="#0D1727"/>
<path d="M33.6891 190.735L33.4165 190.466C32.9406 189.998 32.9406 189.234 33.4165 188.766L121.96 101.013C122.436 100.541 123.204 100.541 123.68 101.013L123.952 101.282C124.428 101.75 124.428 102.514 123.952 102.982L35.4087 190.735C34.9327 191.203 34.1612 191.203 33.6891 190.735Z" fill="#0D1727"/>
<path d="M37.0855 177.489L36.813 177.22C36.3371 176.752 36.3371 175.988 36.813 175.52L107.132 105.822C107.608 105.354 108.376 105.35 108.852 105.822L109.124 106.095C109.6 106.563 109.6 107.327 109.124 107.795L38.8013 177.485C38.3292 177.957 37.5577 177.957 37.0855 177.489Z" fill="#0D1727"/>
<path d="M44.9928 159.775L44.7203 159.506C44.2443 159.038 44.2443 158.274 44.7203 157.806L87.7754 115.131C88.2514 114.662 89.019 114.658 89.495 115.131L89.7675 115.399C90.2435 115.868 90.2435 116.631 89.7675 117.1L46.7085 159.775C46.2364 160.247 45.4649 160.247 44.9928 159.775Z" fill="#0D1727"/>
</g>
<g opacity="0.1" clip-path="url(#clip1)">
<path d="M323.313 161.144C316.584 125.774 294.833 127.016 258.244 86.2197C228.947 53.5553 209.435 26.774 184.025 13.4259C147.678 -5.66154 113.328 -4.78561 82.3745 18.4527C51.421 41.6976 27.3534 81.036 9.83117 154.791C-7.69101 228.552 -0.0393721 267.256 19.021 285.559C36.4057 302.254 80.8559 313.033 123.022 283.409C163.983 254.634 214.35 227.081 264.495 222.205C309.063 217.871 327.966 185.605 323.313 161.144Z" fill="url(#paint0_linear)"/>
</g>
<defs>
<linearGradient id="paint0_linear" x1="162" y1="-0.0101318" x2="162" y2="302.001" gradientUnits="userSpaceOnUse">
<stop stop-color="#0D1727"/>
<stop offset="1" stop-color="#0D1727" stop-opacity="0"/>
</linearGradient>
<clipPath id="clip0">
<rect width="304" height="266" fill="white" transform="translate(32 96)"/>
</clipPath>
<clipPath id="clip1">
<rect width="324" height="302" fill="white"/>
</clipPath>
</defs>
</svg>
