<svg width="133" height="362" viewBox="0 0 133 362" fill="none" xmlns="http://www.w3.org/2000/svg">
<g opacity="0.1" clip-path="url(#clip0)">
<path d="M103.89 354.554L103.617 354.285C103.141 353.817 103.141 353.053 103.617 352.584L114.745 341.564C115.221 341.096 115.988 341.092 116.464 341.564C116.499 341.599 116.537 341.63 116.579 341.66L117.75 342.513L117.6 342.685L105.613 354.557C105.137 355.022 104.366 355.022 103.89 354.554Z" fill="#0D1727"/>
<path d="M86.7667 361.651L86.4942 361.382C86.0182 360.914 86.0182 360.15 86.4942 359.682L125.461 321.068C125.937 320.599 126.705 320.595 127.181 321.068L127.453 321.34C127.929 321.808 127.929 322.572 127.453 323.04L88.4901 361.655C88.0103 362.119 87.2426 362.119 86.7667 361.651Z" fill="#0D1727"/>
<path d="M76.8097 361.643L76.5371 361.374C76.0612 360.906 76.0612 360.142 76.5371 359.67L128.854 307.821C129.33 307.353 130.098 307.353 130.574 307.821L130.846 308.094C131.322 308.562 131.322 309.326 130.846 309.794L78.5293 361.639C78.0533 362.111 77.2856 362.111 76.8097 361.643Z" fill="#0D1727"/>
<path d="M68.776 359.728L68.5035 359.459C68.0275 358.991 68.0275 358.227 68.5035 357.755L130.275 296.536C130.751 296.068 131.518 296.064 131.994 296.536L132.267 296.805C132.743 297.273 132.743 298.037 132.267 298.509L70.4956 359.728C70.0196 360.196 69.2519 360.196 68.776 359.728Z" fill="#0D1727"/>
<path d="M61.7862 356.78L61.5137 356.511C61.0377 356.039 61.0377 355.279 61.5137 354.811L130.654 286.292C131.13 285.823 131.898 285.82 132.374 286.292L132.647 286.56C133.123 287.029 133.123 287.793 132.647 288.261L63.502 356.78C63.0299 357.252 62.2583 357.252 61.7862 356.78Z" fill="#0D1727"/>
<path d="M55.4762 353.156L55.2036 352.884C54.7277 352.416 54.7277 351.652 55.2036 351.184L130.328 276.734C130.804 276.266 131.572 276.262 132.048 276.734L132.321 277.003C132.797 277.471 132.797 278.235 132.321 278.703L57.1958 353.156C56.7237 353.625 55.9521 353.625 55.4762 353.156Z" fill="#0D1727"/>
<path d="M49.6573 349.042L49.3848 348.769C48.9088 348.301 48.9088 347.537 49.3848 347.069L129.484 267.691C129.96 267.219 130.728 267.219 131.204 267.691L131.476 267.96C131.952 268.428 131.952 269.192 131.476 269.66L51.3769 349.038C50.901 349.51 50.1333 349.514 49.6573 349.042Z" fill="#0D1727"/>
<path d="M44.2296 344.539L43.9571 344.271C43.4811 343.802 43.4811 343.038 43.9571 342.57L128.24 259.039C128.716 258.571 129.484 258.567 129.96 259.039L130.232 259.308C130.708 259.776 130.708 260.54 130.232 261.008L45.9492 344.535C45.4732 345.008 44.7055 345.008 44.2296 344.539Z" fill="#0D1727"/>
<path d="M39.1207 339.726L38.8482 339.457C38.3722 338.989 38.3722 338.225 38.8482 337.757L126.678 250.718C127.154 250.249 127.922 250.246 128.398 250.718L128.67 250.99C129.146 251.458 129.146 252.222 128.67 252.691L40.8403 339.726C40.3643 340.194 39.5967 340.194 39.1207 339.726Z" fill="#0D1727"/>
<path d="M34.273 334.655L34.0005 334.387C33.5246 333.918 33.5246 333.155 34.0005 332.686L124.824 242.68C125.3 242.212 126.068 242.212 126.544 242.68L126.816 242.953C127.292 243.421 127.292 244.185 126.816 244.653L35.9926 334.655C35.5167 335.124 34.749 335.128 34.273 334.655Z" fill="#0D1727"/>
<path d="M29.6475 329.362L29.375 329.094C28.8991 328.625 28.8991 327.861 29.375 327.393L122.721 234.884C123.197 234.416 123.964 234.412 124.44 234.884L124.713 235.157C125.189 235.625 125.189 236.389 124.713 236.857L31.371 329.362C30.895 329.831 30.1235 329.831 29.6475 329.362Z" fill="#0D1727"/>
<path d="M25.2145 323.881L24.9419 323.609C24.466 323.14 24.466 322.376 24.9419 321.908L120.318 227.388C120.794 226.92 121.562 226.916 122.038 227.388L122.31 227.657C122.786 228.125 122.786 228.889 122.31 229.361L26.9379 323.877C26.4619 324.349 25.6943 324.349 25.2145 323.881Z" fill="#0D1727"/>
<path d="M20.9654 318.216L20.6929 317.947C20.2169 317.475 20.2169 316.715 20.6929 316.247L117.62 220.191C118.096 219.719 118.863 219.719 119.339 220.191L119.612 220.46C120.088 220.928 120.088 221.692 119.612 222.16L22.6889 318.216C22.2129 318.684 21.4414 318.688 20.9654 318.216Z" fill="#0D1727"/>
<path d="M16.8736 312.397L16.6011 312.128C16.1252 311.66 16.1252 310.896 16.6011 310.428L114.672 213.24C115.148 212.771 115.915 212.771 116.391 213.24L116.664 213.512C117.14 213.98 117.14 214.744 116.664 215.213L18.5932 312.4C18.1173 312.869 17.3458 312.869 16.8736 312.397Z" fill="#0D1727"/>
<path d="M12.92 306.443L12.6475 306.175C12.1715 305.706 12.1715 304.942 12.6475 304.474L111.49 206.519C111.966 206.047 112.733 206.047 113.209 206.519L113.482 206.791C113.958 207.259 113.958 208.023 113.482 208.492L14.6396 306.447C14.1637 306.912 13.396 306.912 12.92 306.443Z" fill="#0D1727"/>
<path d="M9.10068 300.352L8.82816 300.079C8.3522 299.611 8.3522 298.847 8.82816 298.379L108.096 200.005C108.572 199.533 109.34 199.533 109.816 200.005L110.089 200.274C110.565 200.742 110.565 201.506 110.089 201.974L10.8203 300.352C10.3443 300.82 9.57664 300.82 9.10068 300.352Z" fill="#0D1727"/>
<path d="M5.08946 294.437L4.81693 294.168C4.34097 293.696 4.34097 292.936 4.81693 292.468L104.507 193.675C104.983 193.203 105.751 193.203 106.227 193.675L106.5 193.944C106.976 194.412 106.976 195.176 106.5 195.644L6.80905 294.437C6.33309 294.905 5.56542 294.905 5.08946 294.437Z" fill="#0D1727"/>
<path d="M0.425878 289.186L0.153356 288.917C-0.322603 288.449 -0.322603 287.685 0.153356 287.213L100.746 187.526C101.222 187.058 101.989 187.054 102.465 187.526L102.738 187.795C103.214 188.263 103.214 189.027 102.738 189.495L2.14548 289.182C1.66952 289.654 0.897999 289.654 0.425878 289.186Z" fill="#0D1727"/>
<path d="M-4.89003 284.576L-5.16256 284.307C-5.63852 283.839 -5.63852 283.075 -5.16256 282.607L96.808 181.55C97.2839 181.082 98.0554 181.078 98.5276 181.55L98.8001 181.819C99.2761 182.287 99.2761 183.051 98.8001 183.519L-3.17044 284.576C-3.64256 285.044 -4.41407 285.044 -4.89003 284.576Z" fill="#0D1727"/>
<path d="M-10.8588 280.619L-11.1313 280.35C-11.6073 279.882 -11.6073 279.118 -11.1313 278.649L92.7162 175.735C93.1921 175.266 93.9598 175.263 94.4358 175.735L94.7083 176.003C95.1842 176.472 95.1842 177.236 94.7083 177.704L-9.13919 280.615C-9.61131 281.087 -10.3828 281.087 -10.8588 280.619Z" fill="#0D1727"/>
<path d="M-17.4608 277.287L-17.7334 277.018C-18.2093 276.55 -18.2093 275.786 -17.7334 275.318L88.4594 170.077C88.9353 169.605 89.703 169.605 90.179 170.077L90.4515 170.346C90.9275 170.814 90.9275 171.578 90.4515 172.046L-15.7412 277.283C-16.2172 277.755 -16.9849 277.755 -17.4608 277.287Z" fill="#0D1727"/>
<path d="M-24.6771 274.562L-24.9497 274.289C-25.4256 273.821 -25.4256 273.057 -24.9497 272.589L84.0413 164.577C84.5134 164.105 85.2849 164.105 85.7608 164.577L86.0334 164.845C86.5093 165.314 86.5093 166.077 86.0334 166.546L-22.9575 274.558C-23.4335 275.03 -24.2012 275.03 -24.6771 274.562Z" fill="#0D1727"/>
<path d="M-32.4921 272.431L-32.7646 272.159C-33.2406 271.691 -33.2406 270.927 -32.7646 270.458L79.4774 159.226C79.9534 158.758 80.721 158.754 81.197 159.226L81.4695 159.495C81.9455 159.963 81.9455 160.727 81.4695 161.195L-30.7725 272.431C-31.2485 272.9 -32.0161 272.9 -32.4921 272.431Z" fill="#0D1727"/>
<path d="M-40.871 270.861L-41.1435 270.593C-41.6195 270.121 -41.6195 269.361 -41.1435 268.892L74.7488 154.044C75.2247 153.572 75.9924 153.572 76.4684 154.044L76.7409 154.313C77.2169 154.781 77.2169 155.545 76.7409 156.013L-39.1514 270.858C-39.6274 271.33 -40.395 271.33 -40.871 270.861Z" fill="#0D1727"/>
<path d="M-49.7992 269.833L-50.0717 269.56C-50.5477 269.092 -50.5477 268.328 -50.0717 267.86L69.8662 149C70.3422 148.532 71.1099 148.528 71.5858 149L71.8584 149.273C72.3343 149.741 72.3343 150.505 71.8584 150.973L-48.0796 269.833C-48.5556 270.301 -49.3232 270.305 -49.7992 269.833Z" fill="#0D1727"/>
<path d="M-59.2226 269.288L-59.4951 269.015C-59.971 268.547 -59.971 267.783 -59.4951 267.315L64.8186 144.122C65.2946 143.65 66.0623 143.65 66.5382 144.122L66.8108 144.39C67.2867 144.859 67.2867 145.623 66.8108 146.091L-57.503 269.288C-57.9789 269.756 -58.7466 269.76 -59.2226 269.288Z" fill="#0D1727"/>
<path d="M-69.0873 269.184L-69.3598 268.915C-69.8358 268.447 -69.8358 267.683 -69.3598 267.215L59.6099 139.404C60.0858 138.936 60.8535 138.932 61.3295 139.404L61.602 139.673C62.0779 140.141 62.0779 140.905 61.602 141.374L-67.3677 269.184C-67.8437 269.652 -68.6152 269.652 -69.0873 269.184Z" fill="#0D1727"/>
<path d="M-79.2855 269.414L-79.5581 269.146C-80.034 268.677 -80.034 267.913 -79.5581 267.445L54.2327 134.856C54.7086 134.384 55.4763 134.384 55.9523 134.856L56.2248 135.125C56.7007 135.593 56.7007 136.357 56.2248 136.825L-77.5659 269.414C-78.0419 269.883 -78.8096 269.883 -79.2855 269.414Z" fill="#0D1727"/>
<path d="M-89.6991 269.863L-89.9716 269.591C-90.4476 269.123 -90.4476 268.359 -89.9716 267.887L48.6899 130.473C49.1659 130.004 49.9336 130 50.4096 130.473L50.6821 130.741C51.158 131.209 51.158 131.973 50.6821 132.442L-87.9795 269.856C-88.4555 270.332 -89.227 270.332 -89.6991 269.863Z" fill="#0D1727"/>
<path d="M-99.7982 269.994L-100.071 269.721C-100.547 269.253 -100.547 268.489 -100.071 268.021L42.9551 126.277C43.431 125.809 44.1987 125.805 44.6747 126.277L44.9472 126.546C45.4232 127.014 45.4232 127.778 44.9472 128.246L-98.0786 269.994C-98.5546 270.462 -99.3261 270.462 -99.7982 269.994Z" fill="#0D1727"/>
<path d="M-108.461 268.7L-108.734 268.432C-109.21 267.963 -109.21 267.2 -108.734 266.731L37.0442 122.262C37.5201 121.794 38.2878 121.79 38.7637 122.262L39.0363 122.531C39.5123 122.999 39.5123 123.763 39.0363 124.231L-106.742 268.7C-107.214 269.169 -107.985 269.173 -108.461 268.7Z" fill="#0D1727"/>
<path d="M-116.338 266.635L-116.61 266.367C-117.086 265.898 -117.086 265.135 -116.61 264.666L30.9256 118.451C31.4016 117.982 32.1693 117.979 32.6452 118.451L32.9178 118.719C33.3937 119.188 33.3937 119.951 32.9178 120.42L-114.618 266.635C-115.094 267.104 -115.866 267.104 -116.338 266.635Z" fill="#0D1727"/>
<path d="M-123.654 264.01L-123.926 263.741C-124.402 263.273 -124.402 262.509 -123.926 262.041L24.5923 114.854C25.0683 114.382 25.836 114.382 26.3119 114.854L26.5845 115.127C27.0604 115.595 27.0604 116.359 26.5845 116.827L-121.934 264.006C-122.41 264.478 -123.178 264.478 -123.654 264.01Z" fill="#0D1727"/>
<path d="M-130.505 260.92L-130.778 260.651C-131.254 260.183 -131.254 259.419 -130.778 258.951L18.0363 111.473C18.5123 111 19.28 111 19.7559 111.473L20.0285 111.745C20.5044 112.213 20.5044 112.977 20.0285 113.446L-128.786 260.924C-129.258 261.392 -130.029 261.392 -130.505 260.92Z" fill="#0D1727"/>
<path d="M-136.915 257.4L-137.187 257.128C-137.663 256.659 -137.663 255.896 -137.187 255.427L11.2236 108.352C11.6996 107.88 12.4673 107.88 12.9433 108.352L13.2158 108.621C13.6917 109.089 13.6917 109.853 13.2158 110.321L-135.195 257.4C-135.671 257.872 -136.443 257.872 -136.915 257.4Z" fill="#0D1727"/>
<path d="M-142.914 253.454L-143.187 253.186C-143.663 252.717 -143.663 251.954 -143.187 251.485L4.13403 105.488C4.60999 105.016 5.37767 105.016 5.85364 105.488L6.12616 105.757C6.60211 106.225 6.60211 106.989 6.12616 107.458L-141.195 253.454C-141.667 253.926 -142.438 253.926 -142.914 253.454Z" fill="#0D1727"/>
</g>
<g opacity="0.1" clip-path="url(#clip1)">
<path d="M120.313 161.144C113.584 125.774 91.8334 127.016 55.2443 86.2197C25.9468 53.5553 6.43483 26.774 -18.9746 13.4259C-55.3215 -5.66154 -89.6721 -4.78561 -120.626 18.4527C-151.579 41.6976 -175.647 81.036 -193.169 154.791C-210.691 228.552 -203.039 267.256 -183.979 285.559C-166.594 302.254 -122.144 313.033 -79.9783 283.409C-39.0168 254.634 11.3505 227.081 61.4952 222.205C106.063 217.871 124.966 185.605 120.313 161.144Z" fill="url(#paint0_linear)"/>
</g>
<defs>
<linearGradient id="paint0_linear" x1="-40.9997" y1="-0.0101318" x2="-40.9997" y2="302.001" gradientUnits="userSpaceOnUse">
<stop stop-color="#0D1727"/>
<stop offset="1" stop-color="#0D1727" stop-opacity="0"/>
</linearGradient>
<clipPath id="clip0">
<rect width="304" height="266" fill="white" transform="translate(-171 96)"/>
</clipPath>
<clipPath id="clip1">
<rect width="324" height="302" fill="white" transform="translate(-203)"/>
</clipPath>
</defs>
</svg>
