<svg width="221" height="36" viewBox="0 0 221 36" fill="none" xmlns="http://www.w3.org/2000/svg">
<g clip-path="url(#clip0)">
<path d="M210.05 34.889L188.593 11.836C187.219 10.3567 184.98 10.3567 183.605 11.836L162.149 34.9021C160.774 36.3814 158.536 36.3814 157.161 34.9021L135.718 11.836C134.343 10.3567 132.105 10.3567 130.73 11.836L109.274 34.889C107.899 36.3683 105.661 36.3683 104.286 34.889L82.8429 11.836C81.4683 10.3567 79.2297 10.3567 77.8552 11.836L56.3988 34.889C55.0242 36.3683 52.7856 36.3683 51.411 34.889L29.9677 11.836C28.5932 10.3567 26.3546 10.3567 24.98 11.836L6.02403 32.2185C4.64946 33.6978 2.41087 33.6978 1.0363 32.2185C-0.338271 30.7392 -0.338271 28.3436 1.0363 26.8643L24.98 1.11451C26.3546 -0.364768 28.5932 -0.364768 29.9677 1.11451L51.4241 24.1807C52.7987 25.66 55.0373 25.66 56.4119 24.1807L77.8552 1.11451C79.2297 -0.364768 81.4683 -0.364768 82.8429 1.11451L104.299 24.1807C105.674 25.66 107.912 25.66 109.287 24.1807L130.73 1.11451C132.105 -0.364768 134.343 -0.364768 135.718 1.11451L157.174 24.1807C158.549 25.66 160.788 25.66 162.162 24.1807L183.619 1.11451C184.993 -0.364768 187.219 -0.364768 188.606 1.11451L210.063 24.1807C211.437 25.66 213.676 25.66 215.05 24.1807L233.993 3.79814C235.368 2.31887 237.606 2.31887 238.981 3.79814C240.356 5.27741 240.356 7.67305 238.981 9.15232L215.037 34.9021C213.65 36.3683 211.424 36.3683 210.05 34.889Z" fill="#C9DB30"/>
</g>
<defs>
<clipPath id="clip0">
<rect width="240" height="36" fill="white"/>
</clipPath>
</defs>
</svg>
